<svg width="60" height="60" viewBox="0 0 60 60" fill="none" xmlns="http://www.w3.org/2000/svg">
<path d="M55.3125 15H54.0949C55.1827 13.7866 55.8959 12.2841 56.1482 10.6741C56.4006 9.06416 56.1813 7.41557 55.5168 5.92754C54.8524 4.43952 53.7713 3.17574 52.4041 2.28892C51.0369 1.4021 49.4421 0.930176 47.8125 0.930176C46.1829 0.930176 44.5881 1.4021 43.2209 2.28892C41.8537 3.17574 40.7726 4.43952 40.1082 5.92754C39.4437 7.41557 39.2244 9.06416 39.4768 10.6741C39.7291 12.2841 40.4423 13.7866 41.5301 15H30V5.62496C30 5.37632 29.9012 5.13786 29.7254 4.96204C29.5496 4.78623 29.3111 4.68746 29.0625 4.68746H25.3125C25.0639 4.68746 24.8254 4.78623 24.6496 4.96204C24.4738 5.13786 24.375 5.37632 24.375 5.62496V15H23.4375V1.87496C23.4375 1.62632 23.3387 1.38786 23.1629 1.21204C22.9871 1.03623 22.7486 0.937456 22.5 0.937456H18.75C18.5014 0.937456 18.2629 1.03623 18.0871 1.21204C17.9113 1.38786 17.8125 1.62632 17.8125 1.87496V15H16.875V8.43746C16.875 8.18882 16.7762 7.95036 16.6004 7.77454C16.4246 7.59873 16.1861 7.49996 15.9375 7.49996H12.1875C11.9389 7.49996 11.7004 7.59873 11.5246 7.77454C11.3488 7.95036 11.25 8.18882 11.25 8.43746V15H4.6875C3.69328 15.0011 2.7401 15.3965 2.03708 16.0995C1.33406 16.8026 0.938617 17.7557 0.9375 18.75V46.875C0.938617 47.8692 1.33406 48.8224 2.03708 49.5254C2.7401 50.2284 3.69328 50.6238 4.6875 50.625H24.0117L22.7613 54.375H19.6875C19.4389 54.375 19.2004 54.4737 19.0246 54.6495C18.8488 54.8254 18.75 55.0638 18.75 55.3125V57.1875H9.375C9.12636 57.1875 8.8879 57.2862 8.71209 57.462C8.53627 57.6379 8.4375 57.8763 8.4375 58.125C8.4375 58.3736 8.53627 58.6121 8.71209 58.7879C8.8879 58.9637 9.12636 59.0625 9.375 59.0625H50.625C50.8736 59.0625 51.1121 58.9637 51.2879 58.7879C51.4637 58.6121 51.5625 58.3736 51.5625 58.125C51.5625 57.8763 51.4637 57.6379 51.2879 57.462C51.1121 57.2862 50.8736 57.1875 50.625 57.1875H41.25V55.3125C41.25 55.0638 41.1512 54.8254 40.9754 54.6495C40.7996 54.4737 40.5611 54.375 40.3125 54.375H37.2387L35.9883 50.625H55.3125C56.3067 50.6238 57.2599 50.2284 57.9629 49.5254C58.6659 48.8224 59.0614 47.8692 59.0625 46.875V18.75C59.0614 17.7557 58.6659 16.8026 57.9629 16.0995C57.2599 15.3965 56.3067 15.0011 55.3125 15ZM48.75 2.88042C50.1511 3.08488 51.4488 3.73617 52.4501 4.7374C53.4513 5.73864 54.1026 7.03633 54.307 8.43746H48.75V2.88042ZM48.2004 10.3125H54.307C54.1451 11.439 53.6928 12.504 52.9946 13.4027C52.2964 14.3015 51.3763 15.0031 50.3248 15.4385C49.2733 15.8739 48.1265 16.0282 46.9973 15.8862C45.8681 15.7442 44.7953 15.3107 43.8844 14.6285L48.2004 10.3125ZM41.25 9.37496C41.2523 7.79759 41.8217 6.27365 42.8544 5.08133C43.8871 3.889 45.3141 3.10783 46.875 2.88042V8.98707L42.559 13.3031C41.708 12.1704 41.2485 10.7917 41.25 9.37496ZM26.25 6.56246H28.125V24.375H26.25V6.56246ZM23.4375 16.875H24.375V24.375H23.4375V16.875ZM19.6875 2.81246H21.5625V24.375H19.6875V2.81246ZM16.875 16.875H17.8125V24.375H16.875V16.875ZM13.125 9.37496H15V24.375H13.125V9.37496ZM39.375 56.25V57.1875H20.625V56.25H39.375ZM24.7383 54.375L25.9887 50.625H34.0113L35.2617 54.375H24.7383ZM57.1875 46.875C57.1868 47.372 56.9891 47.8486 56.6376 48.2001C56.2861 48.5516 55.8096 48.7493 55.3125 48.75H4.6875C4.19042 48.7493 3.71388 48.5516 3.36239 48.2001C3.0109 47.8486 2.81315 47.372 2.8125 46.875V45H57.1875V46.875ZM57.1875 43.125H2.8125V18.75C2.81315 18.2529 3.0109 17.7763 3.36239 17.4248C3.71388 17.0734 4.19042 16.8756 4.6875 16.875H11.25V24.375H10.3125V18.75C10.3125 18.5013 10.2137 18.2629 10.0379 18.087C9.8621 17.9112 9.62364 17.8125 9.375 17.8125H5.625C5.37636 17.8125 5.1379 17.9112 4.96209 18.087C4.78627 18.2629 4.6875 18.5013 4.6875 18.75V25.3125C4.6875 25.5611 4.78627 25.7996 4.96209 25.9754C5.1379 26.1512 5.37636 26.25 5.625 26.25H35.625C35.8736 26.25 36.1121 26.1512 36.2879 25.9754C36.4637 25.7996 36.5625 25.5611 36.5625 25.3125V18.75C36.5625 18.5013 36.4637 18.2629 36.2879 18.087C36.1121 17.9112 35.8736 17.8125 35.625 17.8125H31.875C31.6264 17.8125 31.3879 17.9112 31.2121 18.087C31.0363 18.2629 30.9375 18.5013 30.9375 18.75V24.375H30V16.875H43.9547C45.1473 17.491 46.4702 17.8125 47.8125 17.8125C49.1548 17.8125 50.4777 17.491 51.6703 16.875H55.3125C55.8096 16.8756 56.2861 17.0734 56.6376 17.4248C56.9891 17.7763 57.1868 18.2529 57.1875 18.75V43.125ZM8.4375 19.6875V24.375H6.5625V19.6875H8.4375ZM32.8125 24.375V19.6875H34.6875V24.375H32.8125Z" fill="url(#paint0_linear)"/>
<path d="M11.25 45.9375H5.625C5.37636 45.9375 5.1379 46.0363 4.96209 46.2121C4.78627 46.3879 4.6875 46.6264 4.6875 46.875C4.6875 47.1236 4.78627 47.3621 4.96209 47.5379C5.1379 47.7137 5.37636 47.8125 5.625 47.8125H11.25C11.4986 47.8125 11.7371 47.7137 11.9129 47.5379C12.0887 47.3621 12.1875 47.1236 12.1875 46.875C12.1875 46.6264 12.0887 46.3879 11.9129 46.2121C11.7371 46.0363 11.4986 45.9375 11.25 45.9375Z" fill="url(#paint1_linear)"/>
<path d="M15 45.9375H14.0625C13.8139 45.9375 13.5754 46.0363 13.3996 46.2121C13.2238 46.3879 13.125 46.6264 13.125 46.875C13.125 47.1236 13.2238 47.3621 13.3996 47.5379C13.5754 47.7137 13.8139 47.8125 14.0625 47.8125H15C15.2486 47.8125 15.4871 47.7137 15.6629 47.5379C15.8387 47.3621 15.9375 47.1236 15.9375 46.875C15.9375 46.6264 15.8387 46.3879 15.6629 46.2121C15.4871 46.0363 15.2486 45.9375 15 45.9375Z" fill="url(#paint2_linear)"/>
<path d="M40.3125 24.375C40.4357 24.3752 40.5576 24.351 40.6714 24.3039C40.7852 24.2568 40.8885 24.1876 40.9755 24.1004L44.4508 20.625H52.5C52.7487 20.625 52.9871 20.5262 53.1629 20.3504C53.3387 20.1746 53.4375 19.9361 53.4375 19.6875C53.4375 19.4389 53.3387 19.2004 53.1629 19.0246C52.9871 18.8488 52.7487 18.75 52.5 18.75H44.0625C43.9394 18.75 43.8175 18.7742 43.7038 18.8214C43.59 18.8685 43.4867 18.9375 43.3996 19.0246L39.6496 22.7746C39.5185 22.9057 39.4292 23.0727 39.393 23.2546C39.3568 23.4365 39.3754 23.625 39.4464 23.7963C39.5173 23.9676 39.6375 24.114 39.7917 24.217C39.9458 24.32 40.1271 24.375 40.3125 24.375Z" fill="url(#paint3_linear)"/>
<path d="M52.4994 34.6875C52.0067 34.6879 51.5228 34.8176 51.096 35.0638C50.6693 35.31 50.3147 35.6639 50.0677 36.0902L40.2533 30.3644C40.1203 29.7256 39.7693 29.1528 39.2605 28.7443C38.7516 28.3358 38.1165 28.1169 37.464 28.1252C36.8114 28.1335 36.1821 28.3685 35.6838 28.7898C35.1855 29.2112 34.8492 29.7927 34.7326 30.4348L24.856 37.8422C24.5873 37.4284 24.2144 37.0927 23.7748 36.8687C23.3353 36.6448 22.8444 36.5405 22.3518 36.5664C21.8591 36.5923 21.3819 36.7474 20.9682 37.0162C20.5545 37.285 20.2189 37.658 19.9951 38.0977L10.2334 34.0301C10.0793 33.3879 9.70432 32.8203 9.17397 32.4268C8.64362 32.0332 7.99174 31.8387 7.33245 31.8774C6.67317 31.9161 6.0485 32.1855 5.56782 32.6384C5.08714 33.0912 4.78107 33.6988 4.70322 34.3546C4.62536 35.0104 4.78068 35.6727 5.14196 36.2255C5.50325 36.7784 6.04749 37.1865 6.67939 37.3785C7.31129 37.5704 7.99059 37.534 8.59834 37.2756C9.20609 37.0171 9.70357 36.5531 10.0037 35.9648L19.7654 40.0324C19.9161 40.6596 20.2779 41.216 20.7901 41.6081C21.3023 42.0003 21.9337 42.2044 22.5785 42.1863C23.2233 42.1681 23.8423 41.9288 24.3317 41.5085C24.821 41.0882 25.1509 40.5124 25.2662 39.8777L35.1427 32.4703C35.4044 32.8734 35.765 33.2026 36.1902 33.4265C36.6154 33.6504 37.0909 33.7615 37.5713 33.7491C38.0517 33.7368 38.5209 33.6014 38.934 33.356C39.3471 33.1105 39.6904 32.7632 39.931 32.3473L49.7455 38.073C49.8538 38.5936 50.1075 39.0728 50.477 39.455C50.8466 39.8372 51.317 40.1069 51.8336 40.2327C52.3502 40.3584 52.8919 40.3352 53.3958 40.1657C53.8997 39.9961 54.3453 39.6872 54.6808 39.2748C55.0163 38.8623 55.228 38.3632 55.2914 37.8353C55.3548 37.3074 55.2672 36.7723 55.0389 36.2922C54.8106 35.812 54.4508 35.4064 54.0013 35.1224C53.5518 34.8384 53.0311 34.6876 52.4994 34.6875ZM8.43687 34.6922C8.43625 34.9412 8.3368 35.1799 8.16035 35.3557C7.98391 35.5314 7.74492 35.63 7.49586 35.6297C7.2468 35.6294 7.00805 35.5302 6.83204 35.354C6.65604 35.1778 6.55719 34.9389 6.55719 34.6898C6.55719 34.4408 6.65604 34.2019 6.83204 34.0257C7.00805 33.8495 7.2468 33.7503 7.49586 33.75C7.74492 33.7497 7.98391 33.8482 8.16035 34.024C8.3368 34.1998 8.43625 34.4384 8.43687 34.6875V34.6922ZM22.4994 40.3125C22.2508 40.3122 22.0126 40.2133 21.8368 40.0375C21.6611 39.8618 21.5622 39.6235 21.5619 39.375V39.3703C21.5628 39.1851 21.6186 39.0043 21.7221 38.8507C21.8257 38.6972 21.9725 38.5778 22.1438 38.5075C22.3152 38.4373 22.5036 38.4194 22.6851 38.4561C22.8667 38.4928 23.0333 38.5824 23.1639 38.7137C23.2946 38.845 23.3834 39.0121 23.4192 39.1938C23.455 39.3755 23.4361 39.5638 23.365 39.7348C23.294 39.9059 23.1738 40.052 23.0197 40.1548C22.8657 40.2576 22.6846 40.3125 22.4994 40.3125ZM37.4994 31.875C37.3139 31.875 37.1327 31.82 36.9785 31.717C36.8244 31.614 36.7042 31.4676 36.6332 31.2963C36.5623 31.125 36.5437 30.9365 36.5799 30.7546C36.6161 30.5727 36.7053 30.4057 36.8365 30.2746C36.9676 30.1435 37.1346 30.0542 37.3165 30.018C37.4983 29.9818 37.6868 30.0004 37.8581 30.0714C38.0294 30.1423 38.1759 30.2625 38.2789 30.4166C38.3819 30.5708 38.4369 30.7521 38.4369 30.9375C38.4365 31.186 38.3376 31.4243 38.1619 31.6C37.9862 31.7758 37.7479 31.8747 37.4994 31.875ZM52.4994 38.4375C52.3139 38.4375 52.1327 38.3825 51.9785 38.2795C51.8244 38.1765 51.7042 38.0301 51.6332 37.8588C51.5623 37.6875 51.5437 37.499 51.5799 37.3171C51.6161 37.1352 51.7053 36.9682 51.8365 36.8371C51.9676 36.706 52.1346 36.6167 52.3165 36.5805C52.4983 36.5443 52.6868 36.5629 52.8581 36.6339C53.0294 36.7048 53.1759 36.825 53.2789 36.9792C53.3819 37.1333 53.4369 37.3146 53.4369 37.5C53.4365 37.7485 53.3376 37.9868 53.1619 38.1625C52.9862 38.3383 52.7479 38.4372 52.4994 38.4375Z" fill="url(#paint4_linear)"/>
<path d="M45 40.3125H38.4375C38.1889 40.3125 37.9504 40.4113 37.7746 40.5871C37.5988 40.7629 37.5 41.0014 37.5 41.25C37.5 41.4986 37.5988 41.7371 37.7746 41.9129C37.9504 42.0887 38.1889 42.1875 38.4375 42.1875H45C45.2486 42.1875 45.4871 42.0887 45.6629 41.9129C45.8387 41.7371 45.9375 41.4986 45.9375 41.25C45.9375 41.0014 45.8387 40.7629 45.6629 40.5871C45.4871 40.4113 45.2486 40.3125 45 40.3125Z" fill="url(#paint5_linear)"/>
<path d="M45 37.5H42.1875C41.9389 37.5 41.7004 37.5988 41.5246 37.7746C41.3488 37.9504 41.25 38.1889 41.25 38.4375C41.25 38.6861 41.3488 38.9246 41.5246 39.1004C41.7004 39.2762 41.9389 39.375 42.1875 39.375H45C45.2486 39.375 45.4871 39.2762 45.6629 39.1004C45.8387 38.9246 45.9375 38.6861 45.9375 38.4375C45.9375 38.1889 45.8387 37.9504 45.6629 37.7746C45.4871 37.5988 45.2486 37.5 45 37.5Z" fill="url(#paint6_linear)"/>
<path d="M5.625 29.0625H15.9375C16.1861 29.0625 16.4246 28.9637 16.6004 28.7879C16.7762 28.6121 16.875 28.3736 16.875 28.125C16.875 27.8764 16.7762 27.6379 16.6004 27.4621C16.4246 27.2863 16.1861 27.1875 15.9375 27.1875H5.625C5.37636 27.1875 5.1379 27.2863 4.96209 27.4621C4.78627 27.6379 4.6875 27.8764 4.6875 28.125C4.6875 28.3736 4.78627 28.6121 4.96209 28.7879C5.1379 28.9637 5.37636 29.0625 5.625 29.0625Z" fill="url(#paint7_linear)"/>
<path d="M18.75 29.0625H19.6875C19.9361 29.0625 20.1746 28.9637 20.3504 28.7879C20.5262 28.6121 20.625 28.3736 20.625 28.125C20.625 27.8764 20.5262 27.6379 20.3504 27.4621C20.1746 27.2863 19.9361 27.1875 19.6875 27.1875H18.75C18.5014 27.1875 18.2629 27.2863 18.0871 27.4621C17.9113 27.6379 17.8125 27.8764 17.8125 28.125C17.8125 28.3736 17.9113 28.6121 18.0871 28.7879C18.2629 28.9637 18.5014 29.0625 18.75 29.0625Z" fill="url(#paint8_linear)"/>
<defs>
<linearGradient id="paint0_linear" x1="30" y1="0.930176" x2="30" y2="59.0625" gradientUnits="userSpaceOnUse">
<stop stop-color="#6F72D9"/>
<stop offset="1" stop-color="#2AD1AB"/>
</linearGradient>
<linearGradient id="paint1_linear" x1="8.4375" y1="45.9375" x2="8.4375" y2="47.8125" gradientUnits="userSpaceOnUse">
<stop stop-color="#6F72D9"/>
<stop offset="1" stop-color="#2AD1AB"/>
</linearGradient>
<linearGradient id="paint2_linear" x1="14.5312" y1="45.9375" x2="14.5312" y2="47.8125" gradientUnits="userSpaceOnUse">
<stop stop-color="#6F72D9"/>
<stop offset="1" stop-color="#2AD1AB"/>
</linearGradient>
<linearGradient id="paint3_linear" x1="46.4063" y1="18.75" x2="46.4063" y2="24.375" gradientUnits="userSpaceOnUse">
<stop stop-color="#6F72D9"/>
<stop offset="1" stop-color="#2AD1AB"/>
</linearGradient>
<linearGradient id="paint4_linear" x1="29.9975" y1="28.125" x2="29.9975" y2="42.1874" gradientUnits="userSpaceOnUse">
<stop stop-color="#6F72D9"/>
<stop offset="1" stop-color="#2AD1AB"/>
</linearGradient>
<linearGradient id="paint5_linear" x1="41.7188" y1="40.3125" x2="41.7188" y2="42.1875" gradientUnits="userSpaceOnUse">
<stop stop-color="#6F72D9"/>
<stop offset="1" stop-color="#2AD1AB"/>
</linearGradient>
<linearGradient id="paint6_linear" x1="43.5938" y1="37.5" x2="43.5938" y2="39.375" gradientUnits="userSpaceOnUse">
<stop stop-color="#6F72D9"/>
<stop offset="1" stop-color="#2AD1AB"/>
</linearGradient>
<linearGradient id="paint7_linear" x1="10.7812" y1="27.1875" x2="10.7812" y2="29.0625" gradientUnits="userSpaceOnUse">
<stop stop-color="#6F72D9"/>
<stop offset="1" stop-color="#2AD1AB"/>
</linearGradient>
<linearGradient id="paint8_linear" x1="19.2188" y1="27.1875" x2="19.2188" y2="29.0625" gradientUnits="userSpaceOnUse">
<stop stop-color="#6F72D9"/>
<stop offset="1" stop-color="#2AD1AB"/>
</linearGradient>
</defs>
</svg>
