<svg width="26" height="14" viewBox="0 0 26 14" fill="none" xmlns="http://www.w3.org/2000/svg">
<path d="M25.1955 6.2869C25.1952 6.2866 25.1949 6.28625 25.1946 6.28595L19.9923 1.10881C19.6026 0.720973 18.9722 0.722416 18.5843 1.11219C18.1964 1.50192 18.1979 2.13229 18.5876 2.52018L22.0804 5.99603H0.995604C0.445732 5.99603 0 6.44176 0 6.99163C0 7.54151 0.445732 7.98724 0.995604 7.98724H22.0804L18.5877 11.4631C18.198 11.851 18.1965 12.4813 18.5843 12.8711C18.9723 13.2609 19.6027 13.2622 19.9924 12.8745L25.1946 7.69732C25.1949 7.69702 25.1952 7.69667 25.1955 7.69637C25.5854 7.30719 25.5842 6.67478 25.1955 6.2869Z" fill="white"/>
</svg>
