<svg width="58" height="60" viewBox="0 0 58 60" fill="none" xmlns="http://www.w3.org/2000/svg">
<path d="M9.8996 59.0001C19.8346 59.9881 27.9196 60.0001 27.9996 60.0001H29.9996C30.0796 60.0001 38.1646 59.9881 48.0996 58.9951C51.5816 58.6471 54.1506 57.2721 55.7366 54.9091C58.0676 51.4341 57.5556 46.7211 56.9576 44.7151C53.8886 34.4001 51.7826 10.6901 51.2116 3.6691C51.053 1.58854 49.3111 -0.0143496 47.2246 9.68823e-05H44.6246C43.7306 -0.00162767 43.0017 0.716202 42.9896 1.6101L42.9756 2.0941V2.1151C42.5906 11.2781 35.4636 15.4531 28.9996 15.4531C22.5356 15.4531 15.4156 11.2811 15.0236 2.1331V2.1011L15.0096 1.6161C15.0008 0.718679 14.2691 -0.00324568 13.3716 9.68823e-05H10.7716C8.68621 -0.0127669 6.94616 1.5897 6.7876 3.6691C6.2166 10.6901 4.1106 34.4001 1.0416 44.7151C0.4416 46.7211 -0.0684001 51.4341 2.2626 54.9091C3.8486 57.2721 6.4176 58.6471 9.8996 59.0001ZM28.9996 17.4531C33.5402 17.5021 37.8964 15.6595 41.0236 12.3671C38.3936 18.9201 33.5376 22.0001 28.9996 22.0001C24.4616 22.0001 19.6066 18.9201 16.9766 12.3691C20.1041 15.6602 24.4597 17.502 28.9996 17.4531ZM2.9576 45.2851C5.9996 35.0701 8.0436 12.8931 8.7816 3.8311C8.86146 2.79182 9.73229 1.99178 10.7746 2.0001H13.0176V2.1551V2.1841C13.4486 17.1721 21.5996 24.0001 28.9996 24.0001C36.3996 24.0001 44.5626 17.1641 44.9776 2.1561L44.9816 2.0001H47.2246C48.2669 1.99178 49.1377 2.79182 49.2176 3.8311C49.9556 12.8931 51.9996 35.0701 55.0416 45.2851C55.4466 46.6471 56.0626 50.8321 54.0756 53.7951C52.8386 55.6391 50.7606 56.7191 47.8996 57.0051C38.0696 57.9881 30.0786 58.0001 29.9996 58.0001H27.9996C27.9206 58.0001 19.9366 57.9891 10.0996 57.0051C7.2386 56.7191 5.1606 55.6391 3.9236 53.7951C1.9366 50.8321 2.5526 46.6471 2.9576 45.2851Z" fill="url(#paint0_linear)"/>
<path d="M10.2992 55.0152C10.3324 55.0188 10.3658 55.0205 10.3992 55.0202C10.9515 55.0478 11.4216 54.6224 11.4492 54.0702C11.4768 53.5179 11.0515 53.0478 10.4992 53.0202C8.06323 52.7762 7.44823 51.8622 7.24623 51.5612C6.28723 50.1302 6.48223 47.4612 6.79323 46.4222C6.93791 45.8976 6.63666 45.3537 6.11529 45.198C5.59392 45.0424 5.04378 45.3322 4.87723 45.8502C4.48823 47.1502 4.15023 50.5352 5.58623 52.6772C5.91623 53.1752 6.92523 54.6782 10.2992 55.0152Z" fill="url(#paint1_linear)"/>
<path d="M47.6001 55.02C47.6335 55.0203 47.6669 55.0187 47.7001 55.015C51.0731 54.678 52.0821 53.175 52.4141 52.681C53.8501 50.54 53.5141 47.158 53.1231 45.855C52.9565 45.337 52.4064 45.0473 51.885 45.2029C51.3636 45.3586 51.0624 45.9025 51.2071 46.427C51.5181 47.471 51.7131 50.135 50.7531 51.566C50.5531 51.866 49.9371 52.781 47.5011 53.025C46.9488 53.0526 46.5235 53.5227 46.5511 54.075C46.5787 54.6273 47.0488 55.0526 47.6011 55.025L47.6001 55.02Z" fill="url(#paint2_linear)"/>
<defs>
<linearGradient id="paint0_linear" x1="28.9992" y1="0" x2="28.9992" y2="60.0001" gradientUnits="userSpaceOnUse">
<stop stop-color="#6F72D9"/>
<stop offset="1" stop-color="#2AD1AB"/>
</linearGradient>
<linearGradient id="paint1_linear" x1="7.99527" y1="45.156" x2="7.99527" y2="55.0214" gradientUnits="userSpaceOnUse">
<stop stop-color="#6F72D9"/>
<stop offset="1" stop-color="#2AD1AB"/>
</linearGradient>
<linearGradient id="paint2_linear" x1="50.0054" y1="45.1609" x2="50.0054" y2="55.0263" gradientUnits="userSpaceOnUse">
<stop stop-color="#6F72D9"/>
<stop offset="1" stop-color="#2AD1AB"/>
</linearGradient>
</defs>
</svg>
