<svg width="21" height="21" viewBox="0 0 21 21" fill="none" xmlns="http://www.w3.org/2000/svg">
<g clip-path="url(#clip0)">
<path d="M20.125 11.3568H0.875C0.391998 11.3568 0 10.9648 0 10.4818C0 9.99881 0.391998 9.60681 0.875 9.60681H20.125C20.608 9.60681 21 9.99881 21 10.4818C21 10.9648 20.608 11.3568 20.125 11.3568Z" fill="#18243E"/>
<path d="M20.125 4.64841H0.875C0.391998 4.64841 0 4.25641 0 3.77341C0 3.29041 0.391998 2.89841 0.875 2.89841H20.125C20.608 2.89841 21 3.29041 21 3.77341C21 4.25641 20.608 4.64841 20.125 4.64841Z" fill="#18243E"/>
<path d="M20.125 18.0651H0.875C0.391998 18.0651 0 17.6731 0 17.1901C0 16.7071 0.391998 16.3151 0.875 16.3151H20.125C20.608 16.3151 21 16.7071 21 17.1901C21 17.6731 20.608 18.0651 20.125 18.0651Z" fill="#18243E"/>
</g>
<defs>
<clipPath id="clip0">
<rect width="21" height="21" fill="white"/>
</clipPath>
</defs>
</svg>
