<svg width="60" height="60" viewBox="0 0 60 60" fill="none" xmlns="http://www.w3.org/2000/svg">
<g clip-path="url(#clip0)">
<path d="M13.0949 41.9938C12.5987 41.5781 11.8596 41.6435 11.4441 42.1397L8.51382 45.6382L7.4548 44.7409C6.96097 44.3225 6.22163 44.3837 5.80315 44.8775C5.3848 45.3714 5.44597 46.1108 5.9398 46.5292L7.898 48.1882C8.11046 48.3682 8.37917 48.4659 8.6555 48.4659C8.68878 48.4659 8.72206 48.4645 8.75546 48.4616C9.06624 48.435 9.3537 48.2857 9.55398 48.0465L13.241 43.6446C13.6564 43.1484 13.591 42.4094 13.0949 41.9938Z" fill="url(#paint0_linear)"/>
<path d="M57.5182 23.9193H55.834C54.4233 23.8542 53.2888 22.6527 51.9762 21.2623C51.099 20.3334 50.1599 19.3387 49.0286 18.6015V8.58383C49.0286 6.81934 47.593 5.38379 45.8286 5.38379H7.60512C5.84063 5.38379 4.4052 6.81934 4.4052 8.58383V16.7129C4.4052 17.3601 4.92984 17.8848 5.57707 17.8848C6.2243 17.8848 6.74895 17.3601 6.74895 16.7129V8.58383C6.74895 8.11977 7.14106 7.72754 7.60512 7.72754H20.573V18.0959C20.573 18.5219 20.8042 18.9144 21.1767 19.121C21.3537 19.2191 21.5494 19.2678 21.7447 19.2678C21.9607 19.2678 22.1762 19.2082 22.3659 19.0897L26.7183 16.3694L31.0675 19.0896C31.4288 19.3154 31.884 19.3276 32.2568 19.1211C32.6296 18.9146 32.8608 18.5221 32.8608 18.0961V7.72754H45.8288C46.2928 7.72754 46.6849 8.11965 46.6849 8.58383V17.608C46.3037 17.5282 45.9035 17.4802 45.4804 17.4727C45.4734 17.4726 45.4666 17.4726 45.4597 17.4726H42.4909H40.185H38.8569C38.8508 17.4726 38.8448 17.4726 38.8388 17.4727C37.4261 17.4946 36.7002 18.1351 36.34 18.6684C35.7809 19.4962 35.7291 20.6173 36.1936 21.824C36.3018 22.1057 36.4336 22.3722 36.5855 22.6227H27.6993C25.79 22.6227 24.2367 24.176 24.2367 26.0852C24.2367 26.4778 24.3023 26.8554 24.4229 27.2074H24.1119C22.2027 27.2074 20.6494 28.7607 20.6494 30.67C20.6494 32.5794 22.2027 34.1327 24.1119 34.1327H24.4221C24.302 34.4838 24.2366 34.8602 24.2366 35.2516C24.2366 37.1012 25.6914 38.6169 27.5156 38.7127C27.3943 39.0652 27.3285 39.4432 27.3285 39.8364C27.3285 41.7458 28.8818 43.2991 30.791 43.2991H45.3098C45.8099 43.2991 46.265 43.2379 46.6846 43.1332V46.8051C46.6846 47.2711 46.2925 47.6646 45.8284 47.6646H18.6843C18.9142 46.8459 19.0398 45.984 19.0398 45.0928C19.0398 39.8432 14.7691 35.5725 9.51973 35.5725C8.55609 35.5725 7.62586 35.7175 6.74859 35.9851V27.2489C6.74859 26.6016 6.22395 26.077 5.57672 26.077C4.92949 26.077 4.40484 26.6016 4.40484 27.2489V37.0695C1.7591 38.7627 0 41.7253 0 45.0929C0 50.3443 4.27066 54.6166 9.52008 54.6166C12.9728 54.6166 16.0017 52.768 17.6709 50.0084H45.8288C47.5931 50.0084 49.0287 48.5715 49.0287 46.8052V41.9803C49.2874 41.7954 49.5348 41.6056 49.7747 41.4207C50.8096 40.6232 51.7032 39.9345 53.1264 39.9345H57.5183C58.8867 39.9345 60.0001 38.8227 60.0001 37.456V26.4012C60 25.0326 58.8867 23.9193 57.5182 23.9193ZM30.517 15.9808L27.34 13.9937C26.9599 13.7561 26.4777 13.756 26.0974 13.9936L22.9167 15.9815V7.72754H30.517V15.9808ZM9.52008 52.2729C5.56301 52.2729 2.34375 49.052 2.34375 45.0929C2.34375 41.1357 5.56301 37.9163 9.52008 37.9163C13.4771 37.9163 16.6964 41.1357 16.6964 45.0929C16.6964 49.052 13.4771 52.2729 9.52008 52.2729ZM57.6562 37.456C57.6562 37.5279 57.5918 37.5908 57.5182 37.5908H53.1263C50.9047 37.5908 49.5443 38.6391 48.3439 39.5642C47.3353 40.3415 46.5387 40.9555 45.31 40.9555H30.7913C30.1744 40.9555 29.6725 40.4536 29.6725 39.8366C29.6725 39.2196 30.1744 38.7177 30.7913 38.7177H34.6812C35.3284 38.7177 35.8531 38.193 35.8531 37.5458C35.8531 36.8986 35.3284 36.3739 34.6812 36.3739H27.6994C27.0824 36.3739 26.5806 35.8706 26.5806 35.2517C26.5806 34.6347 27.0825 34.1328 27.6994 34.1328H34.6812C35.3284 34.1328 35.8531 33.6082 35.8531 32.9609C35.8531 32.3137 35.3284 31.7891 34.6812 31.7891H24.112C23.4952 31.7891 22.9932 31.2871 22.9932 30.6702C22.9932 30.0532 23.4952 29.5513 24.112 29.5513H34.6812C35.3284 29.5513 35.8531 29.0266 35.8531 28.3794C35.8531 27.7321 35.3284 27.2075 34.6812 27.2075H27.6994C27.0824 27.2075 26.5806 26.7041 26.5806 26.0853C26.5806 25.4683 27.0825 24.9665 27.6994 24.9665H40.7753H43.3186H45.0176C45.6648 24.9665 46.1895 24.4419 46.1895 23.7946C46.1895 23.1474 45.6648 22.6228 45.0176 22.6228H43.3186H40.7753C39.7034 22.6228 38.7639 21.9795 38.3814 20.9832C38.1585 20.4041 38.2192 20.0738 38.2825 19.9801C38.346 19.8861 38.5748 19.822 38.8669 19.8165H42.4909H45.4489C47.4251 19.856 48.8081 21.3208 50.2723 22.8714C51.8039 24.4937 53.3876 26.1711 55.7646 26.2623C55.7795 26.2629 55.7945 26.2631 55.8095 26.2631H57.5184C57.5932 26.2631 57.6565 26.3264 57.6565 26.4011V37.456H57.6562Z" fill="url(#paint1_linear)"/>
<path d="M5.57812 23.1546C6.22535 23.1546 6.75 22.6267 6.75 21.9795C6.75 21.3323 6.22535 20.8076 5.57812 20.8076C4.9309 20.8076 4.40625 21.3323 4.40625 21.9795V21.9862C4.40625 22.6333 4.9309 23.1546 5.57812 23.1546Z" fill="url(#paint2_linear)"/>
</g>
<defs>
<linearGradient id="paint0_linear" x1="9.51986" y1="41.7202" x2="9.51986" y2="48.4659" gradientUnits="userSpaceOnUse">
<stop stop-color="#6F72D9"/>
<stop offset="1" stop-color="#2AD1AB"/>
</linearGradient>
<linearGradient id="paint1_linear" x1="30.0001" y1="5.38379" x2="30.0001" y2="54.6166" gradientUnits="userSpaceOnUse">
<stop stop-color="#6F72D9"/>
<stop offset="1" stop-color="#2AD1AB"/>
</linearGradient>
<linearGradient id="paint2_linear" x1="5.57812" y1="20.8076" x2="5.57812" y2="23.1546" gradientUnits="userSpaceOnUse">
<stop stop-color="#6F72D9"/>
<stop offset="1" stop-color="#2AD1AB"/>
</linearGradient>
<clipPath id="clip0">
<rect width="60" height="60" fill="white"/>
</clipPath>
</defs>
</svg>
