<svg width="21" height="35" viewBox="0 0 21 35" fill="none" xmlns="http://www.w3.org/2000/svg">
<path d="M12.8629 34.9316H7.24698C6.30894 34.9316 5.54589 34.1701 5.54589 33.2339V20.5917H2.26945C1.33142 20.5917 0.568359 19.8298 0.568359 18.8939V13.4767C0.568359 12.5405 1.33142 11.7789 2.26945 11.7789H5.54589V9.06616C5.54589 6.37638 6.39215 4.08794 7.99291 2.44865C9.60089 0.801888 11.8481 -0.0683594 14.4915 -0.0683594L18.7744 -0.0614167C19.7109 -0.0598145 20.4726 0.701752 20.4726 1.63635V6.66611C20.4726 7.60231 19.7098 8.36388 18.772 8.36388L15.8884 8.36494C15.0089 8.36494 14.785 8.54092 14.7371 8.59486C14.6581 8.68431 14.5642 8.93719 14.5642 9.63547V11.7786H18.5553C18.8558 11.7786 19.1469 11.8526 19.397 11.992C19.9367 12.2929 20.2722 12.862 20.2722 13.4769L20.27 18.8942C20.27 19.8298 19.507 20.5914 18.5689 20.5914H14.5642V33.2339C14.5642 34.1701 13.8009 34.9316 12.8629 34.9316ZM7.60175 32.8798H12.5081V19.6731C12.5081 19.048 13.0178 18.5395 13.6439 18.5395H18.2142L18.216 13.8308H13.6436C13.0175 13.8308 12.5081 13.3223 12.5081 12.6972V9.63547C12.5081 8.83385 12.5897 7.92221 13.196 7.23701C13.9285 6.40869 15.083 6.3131 15.8878 6.3131L18.4167 6.31203V1.9899L14.4899 1.98349C10.2417 1.98349 7.60175 4.69757 7.60175 9.06616V12.6972C7.60175 13.3221 7.09233 13.8308 6.46626 13.8308H2.62422V18.5395H6.46626C7.09233 18.5395 7.60175 19.048 7.60175 19.6731V32.8798ZM18.7704 1.99043H18.7707H18.7704Z" fill="url(#paint0_linear)"/>
<defs>
<linearGradient id="paint0_linear" x1="10.5205" y1="-0.0683594" x2="10.5205" y2="34.9316" gradientUnits="userSpaceOnUse">
<stop stop-color="#6F72D9"/>
<stop offset="1" stop-color="#2AD1AB"/>
</linearGradient>
</defs>
</svg>
