<svg width="48" height="58" viewBox="0 0 48 58" fill="none" xmlns="http://www.w3.org/2000/svg">
<path d="M37.0039 23.5106C36.3568 22.3339 35.4055 21.3525 34.2495 20.669C33.0935 19.9855 31.7752 19.625 30.4323 19.625H27.75V14H35.25C38.4812 13.9963 41.579 12.7111 43.8638 10.4263C46.1486 8.14152 47.4338 5.0437 47.4375 1.8125C47.4375 1.56386 47.3387 1.3254 47.1629 1.14959C46.9871 0.973775 46.7486 0.875002 46.5 0.875H1.5C1.25136 0.875002 1.01291 0.973775 0.83709 1.14959C0.661275 1.3254 0.562502 1.56386 0.5625 1.8125C0.566157 5.0437 1.85137 8.14152 4.13618 10.4263C6.42098 12.7111 9.5188 13.9963 12.75 14H20.25V19.625H17.5677C16.2248 19.625 14.9065 19.9855 13.7505 20.669C12.5945 21.3525 11.6432 22.3339 10.9961 23.5106L10.6859 24.0746C5.28205 33.9159 2.44525 44.9602 2.4375 56.1875C2.4375 56.4361 2.53628 56.6746 2.71209 56.8504C2.88791 57.0262 3.12636 57.125 3.375 57.125H44.625C44.8736 57.125 45.1121 57.0262 45.2879 56.8504C45.4637 56.6746 45.5625 56.4361 45.5625 56.1875C45.5547 44.9602 42.7179 33.9159 37.3141 24.0746L37.0039 23.5106ZM2.47973 2.75H45.5203C45.2833 5.31098 44.0992 7.69136 42.1997 9.4253C40.3001 11.1592 37.8219 12.1219 35.25 12.125H12.75C10.1781 12.1219 7.69987 11.1592 5.80034 9.4253C3.90082 7.69136 2.7167 5.31098 2.47973 2.75ZM22.125 14H25.875V19.625H22.125V14ZM4.31937 55.25C4.48029 44.6572 7.23002 34.2645 12.3288 24.9782L12.639 24.4142C13.1244 23.5317 13.8378 22.7957 14.7048 22.2831C15.5718 21.7704 16.5605 21.5 17.5677 21.5H30.4323C31.4395 21.5 32.4282 21.7704 33.2952 22.2831C34.1622 22.7957 34.8756 23.5317 35.361 24.4142L35.6712 24.9782C40.77 34.2645 43.5197 44.6572 43.6806 55.25H4.31937Z" fill="url(#paint0_linear)"/>
<path d="M24 24.3125C21.2187 24.3125 18.4999 25.1373 16.1873 26.6825C13.8747 28.2277 12.0723 30.4239 11.0079 32.9935C9.94359 35.5631 9.66511 38.3906 10.2077 41.1185C10.7503 43.8463 12.0896 46.352 14.0563 48.3187C16.023 50.2854 18.5287 51.6247 21.2565 52.1673C23.9844 52.7099 26.8119 52.4314 29.3815 51.3671C31.9511 50.3027 34.1473 48.5003 35.6925 46.1877C37.2377 43.8751 38.0625 41.1563 38.0625 38.375C38.0583 34.6467 36.5753 31.0723 33.939 28.436C31.3027 25.7997 27.7283 24.3167 24 24.3125ZM30.8852 48.4256L29.9681 46.8371L28.3443 47.7746L29.2633 49.3662C27.9062 50.019 26.4391 50.4126 24.9375 50.5268V48.6875H23.0625V50.5268C21.5609 50.4126 20.0938 50.019 18.7367 49.3662L19.6557 47.7746L18.0319 46.8371L17.1148 48.4256C15.8747 47.5732 14.8018 46.5003 13.9494 45.2602L15.5378 44.3431L14.6003 42.7194L13.0088 43.6383C12.356 42.2812 11.9624 40.8141 11.8482 39.3125H13.6875V37.4375H11.8482C11.9624 35.9359 12.356 34.4688 13.0088 33.1117L14.6003 34.0306L15.5378 32.4069L13.9494 31.4898C14.8018 30.2497 15.8747 29.1768 17.1147 28.3244L18.0319 29.9129L19.6557 28.9754L18.7367 27.3837C20.0938 26.731 21.5609 26.3374 23.0625 26.2232V28.0625H24.9375V26.2232C26.4391 26.3374 27.9062 26.731 29.2633 27.3838L28.3443 28.9754L29.9681 29.9129L30.8852 28.3244C32.1253 29.1768 33.1982 30.2497 34.0506 31.4898L32.4622 32.4069L33.3997 34.0306L34.9912 33.1117C35.644 34.4688 36.0376 35.9359 36.1518 37.4375H34.3125V39.3125H36.1518C36.0376 40.8141 35.644 42.2812 34.9912 43.6383L33.3997 42.7194L32.4622 44.3431L34.0506 45.2602C33.1982 46.5003 32.1253 47.5732 30.8852 48.4256Z" fill="url(#paint1_linear)"/>
<path d="M24.9375 35.7238V30.875H23.0625V35.7238C22.437 35.9449 21.9098 36.3801 21.5741 36.9524C21.2384 37.5246 21.1158 38.1971 21.228 38.851C21.3402 39.5049 21.6799 40.0981 22.1872 40.5258C22.6944 40.9534 23.3365 41.1879 24 41.1879C24.6635 41.1879 25.3056 40.9534 25.8128 40.5258C26.3201 40.0981 26.6598 39.5049 26.772 38.851C26.8842 38.1971 26.7616 37.5246 26.4259 36.9524C26.0902 36.3801 25.563 35.9449 24.9375 35.7238ZM24 39.3125C23.8146 39.3125 23.6333 39.2575 23.4792 39.1545C23.325 39.0515 23.2048 38.9051 23.1339 38.7338C23.0629 38.5625 23.0443 38.374 23.0805 38.1921C23.1167 38.0102 23.206 37.8432 23.3371 37.7121C23.4682 37.581 23.6352 37.4917 23.8171 37.4555C23.999 37.4193 24.1875 37.4379 24.3588 37.5089C24.5301 37.5798 24.6765 37.7 24.7795 37.8542C24.8825 38.0083 24.9375 38.1896 24.9375 38.375C24.9372 38.6236 24.8384 38.8618 24.6626 39.0376C24.4868 39.2134 24.2486 39.3122 24 39.3125Z" fill="url(#paint2_linear)"/>
<defs>
<linearGradient id="paint0_linear" x1="24" y1="0.875" x2="24" y2="57.125" gradientUnits="userSpaceOnUse">
<stop stop-color="#6F72D9"/>
<stop offset="1" stop-color="#2AD1AB"/>
</linearGradient>
<linearGradient id="paint1_linear" x1="24" y1="24.3125" x2="24" y2="52.4375" gradientUnits="userSpaceOnUse">
<stop stop-color="#6F72D9"/>
<stop offset="1" stop-color="#2AD1AB"/>
</linearGradient>
<linearGradient id="paint2_linear" x1="24" y1="30.875" x2="24" y2="41.1879" gradientUnits="userSpaceOnUse">
<stop stop-color="#6F72D9"/>
<stop offset="1" stop-color="#2AD1AB"/>
</linearGradient>
</defs>
</svg>
