<svg width="30" height="30" viewBox="0 0 30 30" fill="none" xmlns="http://www.w3.org/2000/svg">
<path d="M29.994 11.4691C29.9909 11.4346 29.984 11.4006 29.9735 11.3676C29.9666 11.3381 29.957 11.3093 29.945 11.2816C29.931 11.2544 29.9142 11.2288 29.895 11.205C29.8757 11.1768 29.8534 11.1509 29.8285 11.1275C29.8205 11.1205 29.817 11.111 29.8085 11.104L24.9998 7.36935V3.49868C24.9998 2.67024 24.3281 1.99861 23.4997 1.99861H18.0809L15.9112 0.31401C15.3753 -0.104019 14.6236 -0.104019 14.0876 0.31401L11.9175 1.99861H6.49873C5.67029 1.99861 4.99865 2.67018 4.99865 3.49868V7.36941L0.191436 11.1041C0.182939 11.1111 0.179423 11.1206 0.171454 11.1276C0.14655 11.1509 0.124225 11.1769 0.104947 11.2051C0.085727 11.2288 0.0689683 11.2544 0.0549637 11.2816C0.0428342 11.3093 0.0333415 11.3382 0.0264857 11.3676C0.0160555 11.4002 0.00919969 11.4337 0.00597687 11.4677C0.00597687 11.4782 0 11.4872 0 11.4977V28.4999C0.000703161 28.818 0.103599 29.1274 0.293511 29.3824C0.296499 29.387 0.297027 29.3925 0.300484 29.3965C0.304 29.4004 0.3115 29.4049 0.316481 29.4105C0.597394 29.7801 1.03429 29.998 1.49855 30H28.4999C28.966 29.9986 29.4047 29.7796 29.686 29.408C29.69 29.403 29.696 29.4015 29.6995 29.3965C29.703 29.3915 29.7034 29.387 29.7065 29.3825C29.8964 29.1274 29.9993 28.818 30 28.5V11.4991C29.9999 11.4886 29.9945 11.4796 29.994 11.4691ZM14.6992 1.10302C14.8738 0.964258 15.1211 0.964258 15.2957 1.10302L16.4492 1.99855H13.5491L14.6992 1.10302ZM1.62454 29L14.6992 18.8439C14.874 18.7054 15.1211 18.7054 15.2957 18.8439L28.3739 29H1.62454ZM28.9999 28.2204L15.9112 18.0549C15.3751 17.6372 14.6237 17.6372 14.0876 18.0549L0.998488 28.2204V12.2606L9.19242 18.6234C9.41075 18.7927 9.72495 18.753 9.89423 18.5347C10.0635 18.3163 10.0238 18.0021 9.80546 17.8329L1.48103 11.369L4.99871 8.63539V12.4991C4.99871 12.7752 5.22261 12.9991 5.49872 12.9991C5.77488 12.9991 5.99872 12.7752 5.99872 12.4991V3.49863C5.99872 3.22246 6.22256 2.99862 6.49873 2.99862H23.4996C23.7757 2.99862 23.9996 3.22246 23.9996 3.49863V12.4991C23.9996 12.7752 24.2234 12.9991 24.4996 12.9991C24.7757 12.9991 24.9996 12.7752 24.9996 12.4991V8.63539L28.5173 11.369L20.1784 17.8444C20.0349 17.9531 19.9609 18.1305 19.9847 18.309C20.0085 18.4874 20.1263 18.6393 20.2933 18.7066C20.4602 18.7739 20.6505 18.7464 20.7914 18.6344L28.9998 12.2606V28.2204H28.9999Z" fill="url(#paint0_linear)"/>
<path d="M20.9996 11.9984V9.99835C20.9996 6.68447 18.3132 3.99805 14.9993 3.99805C11.6854 3.99805 8.99902 6.68447 8.99902 9.99835C8.99902 13.3122 11.6854 15.9987 14.9993 15.9987C15.2755 15.9987 15.4993 15.7748 15.4993 15.4986C15.4993 15.2225 15.2755 14.9986 14.9993 14.9986C12.2378 14.9986 9.99909 12.76 9.99909 9.99841C9.99909 7.23686 12.2378 4.99818 14.9993 4.99818C17.7609 4.99818 19.9996 7.23686 19.9996 9.99841V11.9985C19.9996 12.5508 19.5518 12.9986 18.9995 12.9986C18.4472 12.9986 17.9994 12.5508 17.9994 11.9985V9.99841C17.9994 9.72224 17.7756 9.4984 17.4994 9.4984C17.2232 9.4984 16.9994 9.72224 16.9994 9.99841C16.9994 11.103 16.1039 11.9985 14.9993 11.9985C13.8947 11.9985 12.9992 11.103 12.9992 9.99841C12.9992 8.8938 13.8947 7.99833 14.9993 7.99833C15.2755 7.99833 15.4993 7.77449 15.4993 7.49832C15.4993 7.22216 15.2755 6.99832 14.9993 6.99832C13.6566 6.99533 12.4753 7.88488 12.1073 9.17624C11.7394 10.4676 12.2742 11.8462 13.4168 12.5515C14.5594 13.2567 16.0315 13.1169 17.0209 12.2091C17.1298 13.2665 18.0489 14.0528 19.1104 13.9966C20.172 13.9403 21.003 13.0615 20.9996 11.9984Z" fill="url(#paint1_linear)"/>
<defs>
<linearGradient id="paint0_linear" x1="15" y1="0.000488281" x2="15" y2="30" gradientUnits="userSpaceOnUse">
<stop stop-color="#2AD1AB"/>
<stop offset="1" stop-color="#6F72D9"/>
</linearGradient>
<linearGradient id="paint1_linear" x1="14.9993" y1="3.99805" x2="14.9993" y2="15.9987" gradientUnits="userSpaceOnUse">
<stop stop-color="#2AD1AB"/>
<stop offset="1" stop-color="#6F72D9"/>
</linearGradient>
</defs>
</svg>
