<svg width="60" height="60" viewBox="0 0 60 60" fill="none" xmlns="http://www.w3.org/2000/svg">
<path d="M48.75 1.875H41.25C41.0014 1.875 40.7629 1.97377 40.5871 2.14959C40.4113 2.3254 40.3125 2.56386 40.3125 2.8125V14.0625C40.3125 14.3111 40.2137 14.5496 40.0379 14.7254C39.8621 14.9012 39.6236 15 39.375 15H21.5625C20.7937 15 19.7278 14.3625 19.6875 14.0625V2.8125C19.6875 2.56386 19.5887 2.3254 19.4129 2.14959C19.2371 1.97377 18.9986 1.875 18.75 1.875H11.25C11.0014 1.875 10.7629 1.97377 10.5871 2.14959C10.4113 2.3254 10.3125 2.56386 10.3125 2.8125V53.4375C10.314 54.6802 10.8083 55.8717 11.6871 56.7504C12.5658 57.6292 13.7573 58.1235 15 58.125H45C46.2427 58.1235 47.4342 57.6292 48.3129 56.7504C49.1917 55.8717 49.686 54.6802 49.6875 53.4375V2.8125C49.6875 2.56386 49.5887 2.3254 49.4129 2.14959C49.2371 1.97377 48.9986 1.875 48.75 1.875ZM47.8125 3.75V6.5625H42.1875V3.75H47.8125ZM17.8125 3.75V6.5625H12.1875V3.75H17.8125ZM45 56.25H15C14.2541 56.25 13.5387 55.9537 13.0113 55.4262C12.4838 54.8988 12.1875 54.1834 12.1875 53.4375V8.4375H17.8125V14.0625C17.8125 15.75 20.07 16.875 21.5625 16.875H39.375C40.1209 16.875 40.8363 16.5787 41.3637 16.0512C41.8912 15.5238 42.1875 14.8084 42.1875 14.0625V8.4375H47.8125V53.4375C47.8125 54.1834 47.5162 54.8988 46.9887 55.4262C46.4613 55.9537 45.7459 56.25 45 56.25Z" fill="url(#paint0_linear)"/>
<path d="M33.0456 24.7583L32.5768 26.5752C34.8435 27.1625 36.8429 28.5037 38.246 30.3783C39.6492 32.2529 40.3726 34.5492 40.2974 36.8895C40.2221 39.2299 39.3526 41.4749 37.8318 43.2555C36.3111 45.036 34.2297 46.246 31.93 46.6864L33.0475 45.0927L31.5109 44.0174L29.23 47.2761C29.0875 47.4797 29.0317 47.7315 29.0747 47.9761C29.1178 48.2208 29.2562 48.4384 29.4596 48.5811L32.7184 50.862L33.7937 49.3255L32.575 48.4705C35.2561 47.8902 37.663 46.4224 39.4064 44.3044C41.1498 42.1865 42.1277 39.5423 42.182 36.7997C42.2362 34.057 41.3635 31.3763 39.7052 29.1911C38.0468 27.0059 35.6998 25.4441 33.0437 24.7583H33.0456Z" fill="url(#paint1_linear)"/>
<path d="M28.486 29.1083L30.767 25.8496C30.9094 25.646 30.9652 25.3942 30.9222 25.1495C30.8791 24.9048 30.7407 24.6873 30.5373 24.5446L27.2804 22.2627L26.2051 23.7993L27.4238 24.6543C24.7427 25.2345 22.3358 26.7024 20.5924 28.8203C18.849 30.9382 17.8711 33.5824 17.8168 36.3251C17.7626 39.0677 18.6353 41.7485 20.2936 43.9336C21.9519 46.1188 24.299 47.6806 26.9551 48.3664L27.4238 46.5496C25.1571 45.9622 23.1578 44.621 21.7546 42.7464C20.3515 40.8718 19.628 38.5756 19.7033 36.2352C19.7786 33.8949 20.6481 31.6498 22.1688 29.8693C23.6895 28.0888 25.7709 26.8788 28.0707 26.4383L26.9532 28.0321L28.486 29.1083Z" fill="url(#paint2_linear)"/>
<defs>
<linearGradient id="paint0_linear" x1="30" y1="1.875" x2="30" y2="58.125" gradientUnits="userSpaceOnUse">
<stop stop-color="#6F72D9"/>
<stop offset="1" stop-color="#2AD1AB"/>
</linearGradient>
<linearGradient id="paint1_linear" x1="35.6224" y1="24.7583" x2="35.6224" y2="50.862" gradientUnits="userSpaceOnUse">
<stop stop-color="#6F72D9"/>
<stop offset="1" stop-color="#2AD1AB"/>
</linearGradient>
<linearGradient id="paint2_linear" x1="24.3754" y1="22.2627" x2="24.3754" y2="48.3664" gradientUnits="userSpaceOnUse">
<stop stop-color="#6F72D9"/>
<stop offset="1" stop-color="#2AD1AB"/>
</linearGradient>
</defs>
</svg>
