<svg width="34" height="34" viewBox="0 0 34 34" fill="none" xmlns="http://www.w3.org/2000/svg">
<g clip-path="url(#clip0)">
<path d="M25.6807 16.5446L13.409 8.17746C13.2377 8.06144 13.0168 8.04861 12.8339 8.14511C12.6515 8.24161 12.5371 8.43126 12.5371 8.63821V25.3725C12.5371 25.5794 12.6515 25.7691 12.8344 25.8656C12.9159 25.9091 13.0057 25.9303 13.0949 25.9303C13.2048 25.9303 13.3147 25.8974 13.409 25.8332L25.6807 17.4661C25.833 17.3623 25.9245 17.19 25.9245 17.0053C25.9245 16.8207 25.833 16.6483 25.6807 16.5446ZM13.6527 24.3165V9.69414L24.3766 17.0053L13.6527 24.3165Z" fill="white"/>
<path d="M16.9999 0.270996C7.77261 0.270996 0.265625 7.77798 0.265625 17.0052C0.265625 26.2325 7.77261 33.7395 16.9999 33.7395C26.2271 33.7395 33.7341 26.2325 33.7341 17.0052C33.7341 7.77798 26.2271 0.270996 16.9999 0.270996ZM16.9999 32.6239C8.38787 32.6239 1.38124 25.6172 1.38124 17.0052C1.38124 8.39324 8.38787 1.38661 16.9999 1.38661C25.6119 1.38661 32.6185 8.39324 32.6185 17.0052C32.6185 25.6172 25.6119 32.6239 16.9999 32.6239Z" fill="white"/>
<g filter="url(#filter0_d)">
<path d="M25.6847 16.6209L13.4129 8.25376C13.2416 8.13773 13.0207 8.1249 12.8378 8.2214C12.6554 8.3179 12.541 8.50756 12.541 8.71451V25.4488C12.541 25.6557 12.6554 25.8454 12.8383 25.9419C12.9198 25.9854 13.0096 26.0066 13.0988 26.0066C13.2087 26.0066 13.3186 25.9737 13.4129 25.9095L25.6847 17.5424C25.8369 17.4386 25.9284 17.2663 25.9284 17.0816C25.9284 16.897 25.8369 16.7246 25.6847 16.6209ZM13.6566 24.3928V9.77044L24.3805 17.0816L13.6566 24.3928Z" fill="white" stroke="white" stroke-width="0.760479"/>
<path d="M17.0038 0.34729C7.77652 0.34729 0.269531 7.85427 0.269531 17.0815C0.269531 26.3088 7.77652 33.8158 17.0038 33.8158C26.231 33.8158 33.738 26.3088 33.738 17.0815C33.738 7.85427 26.231 0.34729 17.0038 0.34729ZM17.0038 32.7002C8.39178 32.7002 1.38515 25.6935 1.38515 17.0815C1.38515 8.46954 8.39178 1.46291 17.0038 1.46291C25.6158 1.46291 32.6224 8.46954 32.6224 17.0815C32.6224 25.6935 25.6158 32.7002 17.0038 32.7002Z" fill="white" stroke="white" stroke-width="0.760479"/>
</g>
</g>
<defs>
<filter id="filter0_d" x="-7.71612" y="-7.63775" width="49.4386" height="49.4386" filterUnits="userSpaceOnUse" color-interpolation-filters="sRGB">
<feFlood flood-opacity="0" result="BackgroundImageFix"/>
<feColorMatrix in="SourceAlpha" type="matrix" values="0 0 0 0 0 0 0 0 0 0 0 0 0 0 0 0 0 0 127 0"/>
<feOffset/>
<feGaussianBlur stdDeviation="3.8024"/>
<feColorMatrix type="matrix" values="0 0 0 0 0 0 0 0 0 0 0 0 0 0 0 0 0 0 0.25 0"/>
<feBlend mode="normal" in2="BackgroundImageFix" result="effect1_dropShadow"/>
<feBlend mode="normal" in="SourceGraphic" in2="effect1_dropShadow" result="shape"/>
</filter>
<clipPath id="clip0">
<rect width="33.4685" height="33.4685" fill="white" transform="translate(0.265625 0.270996)"/>
</clipPath>
</defs>
</svg>
