<svg width="60" height="60" viewBox="0 0 60 60" fill="none" xmlns="http://www.w3.org/2000/svg">
<g clip-path="url(#clip0)">
<path d="M35.729 37.026L25.5 34.62V27.571C25.587 27.503 25.677 27.442 25.763 27.371C29.1596 24.5379 31.2214 20.417 31.452 16H31.5C32.0523 16 32.5 15.5522 32.5 15V14C32.5 6.268 26.232 0 18.5 0C10.768 0 4.5 6.268 4.5 14V16C4.5 16.5522 4.94775 17 5.5 17C5.541 16.9961 5.58175 16.9899 5.622 16.981C6.09138 21.0364 8.10175 24.7563 11.237 27.371C11.322 27.442 11.413 27.503 11.5 27.571V34.62L1.271 37.026C0.819 37.1324 0.499625 37.5358 0.5 38V59C0.5 59.5522 0.94775 60 1.5 60H35.5C36.0522 60 36.5 59.5522 36.5 59V38C36.5003 37.5358 36.1809 37.1324 35.729 37.026ZM11.5 58H2.5V38.792L11.5 36.675V58ZM6.5 14C6.5 7.37262 11.8726 2 18.5 2C25.1274 2 30.5 7.37262 30.5 14H27.5C24.74 13.9967 22.5033 11.76 22.5 9C22.5005 8.44775 22.0531 7.99963 21.5009 7.99913C21.4276 7.99913 21.3546 8.007 21.283 8.023L20.683 8.157C15.6363 9.27225 10.8319 11.2878 6.5 14.107V14ZM23.5 58H13.5V39.721L17.044 38.54L14.535 47.74C14.4703 47.9773 14.4951 48.23 14.605 48.45L17.605 54.45C17.8519 54.944 18.4525 55.1444 18.9466 54.8974C19.1403 54.8006 19.2973 54.6436 19.394 54.45L22.394 48.45C22.5039 48.23 22.5288 47.9773 22.464 47.74L19.955 38.54L23.5 39.721V58ZM13.5 37.612V35.618L15.893 36.818L13.5 37.612ZM18.5 40.8L20.435 47.895L18.5 51.764L16.565 47.895L18.5 40.8ZM23.5 37.612L21.107 36.812L23.5 35.618V37.612ZM23.5 33.381L18.5 35.881L13.5 33.381V28.83C15.0551 29.5975 16.7658 29.9977 18.5 30C20.2344 29.9974 21.9449 29.5968 23.5 28.829V33.381ZM12.519 25.834C9.53325 23.3387 7.72963 19.7067 7.546 15.82C11.5414 13.2096 15.9618 11.3166 20.608 10.226C21.2068 13.5641 24.1086 15.9952 27.5 16H29.452C29.2224 19.8231 27.424 23.3816 24.482 25.834C21.0174 28.7224 15.9835 28.7224 12.519 25.834ZM34.5 58H25.5V36.675L34.5 38.792V58Z" fill="url(#paint0_linear)"/>
<path d="M26.5 16H20.5C19.9478 16 19.5 16.4477 19.5 17V18H17.5V17C17.5 16.4477 17.0523 16 16.5 16H10.5C9.94775 16 9.5 16.4477 9.5 17V21C9.5 21.5522 9.94775 22 10.5 22H16.5C17.0523 22 17.5 21.5522 17.5 21V20H19.5V21C19.5 21.5522 19.9478 22 20.5 22H26.5C27.0522 22 27.5 21.5522 27.5 21V17C27.5 16.4477 27.0522 16 26.5 16ZM15.5 20H11.5V18H15.5V20ZM25.5 20H21.5V18H25.5V20Z" fill="url(#paint1_linear)"/>
<path d="M59.1597 24.9323C59.0382 24.7605 58.8883 24.6106 58.7164 24.4891V24.4861L56.6324 23.0161L57.7004 20.7001C58.1298 19.7723 57.7257 18.6722 56.7979 18.2428C56.6047 18.1535 56.3975 18.098 56.1854 18.0791L53.6474 17.8511L53.4184 15.3111C53.3237 14.2927 52.4213 13.5438 51.4028 13.6386C51.1943 13.658 50.9905 13.7126 50.8003 13.8001L48.4863 14.8691L47.0153 12.7841C46.4244 11.9485 45.2682 11.7501 44.4326 12.3408C44.2607 12.4623 44.1108 12.6122 43.9893 12.7841L42.5193 14.8681L40.2003 13.8001C39.2726 13.3707 38.1724 13.7748 37.7431 14.7026C37.6537 14.8958 37.5982 15.103 37.5793 15.3151L37.3513 17.8531L34.8113 18.0821C33.7928 18.1768 33.0441 19.0792 33.1388 20.0977C33.1582 20.3062 33.2128 20.51 33.3003 20.7001L34.3693 23.0141L32.2853 24.4841C31.4497 25.075 31.2513 26.2312 31.8421 27.0668C31.9636 27.2387 32.1134 27.3886 32.2853 27.5101L34.3693 28.9801L33.3003 31.3001C32.8709 32.2278 33.2751 33.328 34.2028 33.7573C34.3961 33.8467 34.6032 33.9022 34.8153 33.9211L37.3533 34.1491L37.5823 36.6891C37.6374 37.288 37.9797 37.823 38.5003 38.1241V50.0001C38.5004 50.5523 38.9482 51 39.5006 50.9998C39.7657 50.9998 40.0198 50.8945 40.2073 50.7071L45.5003 45.4141L50.7933 50.7071C51.1839 51.0976 51.817 51.0975 52.2075 50.7068C52.3949 50.5193 52.5003 50.2651 52.5003 50.0001V38.1241C53.0214 37.8225 53.3637 37.2867 53.4183 36.6871L53.6463 34.1491L56.1863 33.9201C57.2049 33.8275 57.9555 32.9266 57.8629 31.908C57.8438 31.6976 57.7888 31.492 57.7003 31.3001L56.6313 28.9861L58.7163 27.5151C59.552 26.9242 59.7505 25.768 59.1597 24.9323ZM50.5005 47.5861L46.2076 43.2931C45.8171 42.9027 45.184 42.9027 44.7936 43.2931L40.5006 47.5861V38.0641L42.5176 37.1321L43.9886 39.2171C44.5794 40.0527 45.7357 40.2511 46.5713 39.6603C46.7432 39.5388 46.893 39.389 47.0145 39.2171L48.4845 37.1331L50.5005 38.0641V47.5861ZM55.3785 27.4201C54.6465 27.9346 54.3883 28.8997 54.7655 29.7111L55.8005 31.9461L53.3495 32.1671C52.4569 32.2458 51.7488 32.9526 51.6685 33.8451L51.4455 36.3001L49.2125 35.2671C48.4013 34.8913 47.4374 35.1488 46.9216 35.8791L45.5006 37.8921L44.0806 35.8781C43.5658 35.1465 42.6009 34.8882 41.7896 35.2651L39.5546 36.3001L39.3336 33.8491C39.2548 32.9565 38.5481 32.2483 37.6556 32.1681L35.2006 31.9451L36.2336 29.7121C36.6111 28.901 36.3532 27.936 35.6216 27.4211L33.6086 26.0001L35.6226 24.5801C36.3546 24.0656 36.6128 23.1005 36.2356 22.2891L35.2006 20.0541L37.6516 19.8331C38.5442 19.7543 39.2523 19.0476 39.3326 18.1551L39.5536 15.7021L41.7866 16.7351C42.5977 17.113 43.5629 16.8551 44.0776 16.1231L45.5006 14.1081L46.9206 16.1221C47.4353 16.8537 48.4002 17.112 49.2115 16.7351L51.4465 15.7001L51.6675 18.1511C51.7463 19.0437 52.453 19.7518 53.3455 19.8321L55.7985 20.0531L54.7655 22.2861C54.388 23.0972 54.6459 24.0622 55.3775 24.5771L57.3925 26.0001L55.3785 27.4201Z" fill="url(#paint2_linear)"/>
<path d="M45.5 17C40.5295 17 36.5 21.0294 36.5 26C36.5 30.9705 40.5295 35 45.5 35C50.4706 35 54.5 30.9705 54.5 26C54.4944 21.0318 50.4683 17.0055 45.5 17ZM45.5 33C41.634 33 38.5 29.866 38.5 26C38.5 22.134 41.634 19 45.5 19C49.366 19 52.5 22.134 52.5 26C52.4955 29.8641 49.3641 32.9956 45.5 33Z" fill="url(#paint3_linear)"/>
<path d="M53.5 7H51.5V9H53.5V7Z" fill="url(#paint4_linear)"/>
<path d="M57.5 7H55.5V9H57.5V7Z" fill="url(#paint5_linear)"/>
<path d="M55.5 5H53.5V7H55.5V5Z" fill="url(#paint6_linear)"/>
<path d="M55.5 9H53.5V11H55.5V9Z" fill="url(#paint7_linear)"/>
<path d="M42.5 2H40.5V4H42.5V2Z" fill="url(#paint8_linear)"/>
<path d="M46.5 2H44.5V4H46.5V2Z" fill="url(#paint9_linear)"/>
<path d="M44.5 0H42.5V2H44.5V0Z" fill="url(#paint10_linear)"/>
<path d="M44.5 4H42.5V6H44.5V4Z" fill="url(#paint11_linear)"/>
</g>
<defs>
<linearGradient id="paint0_linear" x1="18.5" y1="0" x2="18.5" y2="60" gradientUnits="userSpaceOnUse">
<stop stop-color="#6F72D9"/>
<stop offset="1" stop-color="#2AD1AB"/>
</linearGradient>
<linearGradient id="paint1_linear" x1="18.5" y1="16" x2="18.5" y2="22" gradientUnits="userSpaceOnUse">
<stop stop-color="#6F72D9"/>
<stop offset="1" stop-color="#2AD1AB"/>
</linearGradient>
<linearGradient id="paint2_linear" x1="45.5009" y1="12.0007" x2="45.5009" y2="50.9999" gradientUnits="userSpaceOnUse">
<stop stop-color="#6F72D9"/>
<stop offset="1" stop-color="#2AD1AB"/>
</linearGradient>
<linearGradient id="paint3_linear" x1="45.5" y1="17" x2="45.5" y2="35" gradientUnits="userSpaceOnUse">
<stop stop-color="#6F72D9"/>
<stop offset="1" stop-color="#2AD1AB"/>
</linearGradient>
<linearGradient id="paint4_linear" x1="52.5" y1="7" x2="52.5" y2="9" gradientUnits="userSpaceOnUse">
<stop stop-color="#6F72D9"/>
<stop offset="1" stop-color="#2AD1AB"/>
</linearGradient>
<linearGradient id="paint5_linear" x1="56.5" y1="7" x2="56.5" y2="9" gradientUnits="userSpaceOnUse">
<stop stop-color="#6F72D9"/>
<stop offset="1" stop-color="#2AD1AB"/>
</linearGradient>
<linearGradient id="paint6_linear" x1="54.5" y1="5" x2="54.5" y2="7" gradientUnits="userSpaceOnUse">
<stop stop-color="#6F72D9"/>
<stop offset="1" stop-color="#2AD1AB"/>
</linearGradient>
<linearGradient id="paint7_linear" x1="54.5" y1="9" x2="54.5" y2="11" gradientUnits="userSpaceOnUse">
<stop stop-color="#6F72D9"/>
<stop offset="1" stop-color="#2AD1AB"/>
</linearGradient>
<linearGradient id="paint8_linear" x1="41.5" y1="2" x2="41.5" y2="4" gradientUnits="userSpaceOnUse">
<stop stop-color="#6F72D9"/>
<stop offset="1" stop-color="#2AD1AB"/>
</linearGradient>
<linearGradient id="paint9_linear" x1="45.5" y1="2" x2="45.5" y2="4" gradientUnits="userSpaceOnUse">
<stop stop-color="#6F72D9"/>
<stop offset="1" stop-color="#2AD1AB"/>
</linearGradient>
<linearGradient id="paint10_linear" x1="43.5" y1="0" x2="43.5" y2="2" gradientUnits="userSpaceOnUse">
<stop stop-color="#6F72D9"/>
<stop offset="1" stop-color="#2AD1AB"/>
</linearGradient>
<linearGradient id="paint11_linear" x1="43.5" y1="4" x2="43.5" y2="6" gradientUnits="userSpaceOnUse">
<stop stop-color="#6F72D9"/>
<stop offset="1" stop-color="#2AD1AB"/>
</linearGradient>
<clipPath id="clip0">
<rect width="60" height="60" fill="white"/>
</clipPath>
</defs>
</svg>
