<svg width="60" height="60" viewBox="0 0 60 60" fill="none" xmlns="http://www.w3.org/2000/svg">
<g clip-path="url(#clip0)">
<path d="M52.8339 0V2.68137H51.0898V4.43906H52.8339V7.16531H55.4845V8.90555H57.2424V7.16531H60.0001V0H52.8339ZM58.2421 5.40762H54.5918V1.7577H58.2421V5.40762Z" fill="url(#paint0_linear)"/>
<path d="M26.4113 7.16531H33.5775V4.43906H35.268V2.68137H33.5775V0H26.4113V2.68137H24.7207V4.43906H26.4113V7.16531ZM28.1691 1.7577H31.8196V5.40762H28.1691V1.7577Z" fill="url(#paint1_linear)"/>
<path d="M33.5782 52.8347H30.874V49.4092H29.1161V52.8347H26.4118V55.5386H7.16613V52.8347H4.62293V33.5802H7.16625V30.8764H26.412V33.5802H29.1162V47.5742H30.8741V33.5802H33.5783V26.4149H26.4121V29.1188H7.16613V26.4149H4.50563V24.7246H2.74781V26.4149H0V33.5802H2.865V52.8347H0V60H7.16613V57.2963H26.4118V60H33.5781V57.2963H35.2686V55.5386H33.5781V52.8347H33.5782ZM28.1698 28.1725H31.8203V31.8225H28.1698V28.1725ZM1.75793 28.1725H5.40832V31.8225H1.75793V28.1725ZM5.40832 58.2423H1.75793V54.5924H5.40832V58.2423ZM31.8203 58.2423H28.1698V54.5924H31.8203V58.2423Z" fill="url(#paint2_linear)"/>
<path d="M21.2051 2.68164H22.963V4.43934H21.2051V2.68164Z" fill="url(#paint3_linear)"/>
<path d="M17.6895 2.68164H19.4474V4.43934H17.6895V2.68164Z" fill="url(#paint4_linear)"/>
<path d="M14.1738 2.68164H15.9318V4.43934H14.1738V2.68164Z" fill="url(#paint5_linear)"/>
<path d="M10.6582 2.68164H12.4161V4.43934H10.6582V2.68164Z" fill="url(#paint6_linear)"/>
<path d="M47.5742 2.68164H49.3321V4.43934H47.5742V2.68164Z" fill="url(#paint7_linear)"/>
<path d="M44.0586 2.68164H45.8165V4.43934H44.0586V2.68164Z" fill="url(#paint8_linear)"/>
<path d="M40.543 2.68164H42.3009V4.43934H40.543V2.68164Z" fill="url(#paint9_linear)"/>
<path d="M37.0273 2.68164H38.7853V4.43934H37.0273V2.68164Z" fill="url(#paint10_linear)"/>
<path d="M47.5742 55.5386H49.3321V57.2963H47.5742V55.5386Z" fill="url(#paint11_linear)"/>
<path d="M44.0586 55.5386H45.8165V57.2963H44.0586V55.5386Z" fill="url(#paint12_linear)"/>
<path d="M40.543 55.5386H42.3009V57.2963H40.543V55.5386Z" fill="url(#paint13_linear)"/>
<path d="M37.0273 55.5386H38.7853V57.2963H37.0273V55.5386Z" fill="url(#paint14_linear)"/>
<path d="M57.2425 24.7246H55.4845V26.4149H52.834V33.5802H55.4845V35.2705H57.2425V33.5802H60.0002V26.4149H57.2425V24.7246ZM58.2423 31.8225H54.5919V28.1725H58.2423V31.8225Z" fill="url(#paint15_linear)"/>
<path d="M55.4844 21.2271H57.2423V22.9673H55.4844V21.2271Z" fill="url(#paint16_linear)"/>
<path d="M55.4844 17.6938H57.2423V19.4315H55.4844V17.6938Z" fill="url(#paint17_linear)"/>
<path d="M55.4844 14.1782H57.2423V15.9758H55.4844V14.1782Z" fill="url(#paint18_linear)"/>
<path d="M55.4844 10.6631H57.2423V12.4208H55.4844V10.6631Z" fill="url(#paint19_linear)"/>
<path d="M2.74805 21.2271H4.50598V22.9673H2.74805V21.2271Z" fill="url(#paint20_linear)"/>
<path d="M2.74805 17.6938H4.50598V19.4315H2.74805V17.6938Z" fill="url(#paint21_linear)"/>
<path d="M2.74805 14.1782H4.50598V15.9758H2.74805V14.1782Z" fill="url(#paint22_linear)"/>
<path d="M2.74805 10.6631H4.50598V12.4208H2.74805V10.6631Z" fill="url(#paint23_linear)"/>
<path d="M2.74781 8.90555H4.50574V7.16531H7.16625V4.43906H8.90039V2.68137H7.16613V0H0V7.16531H2.74781V8.90555ZM1.75793 1.7577H5.40832V5.40762H1.75793V1.7577Z" fill="url(#paint24_linear)"/>
<path d="M57.2424 51.1147H55.4845V52.8349H52.8339V55.5388H51.0898V57.2965H52.8339V60.0003H60.0002V52.8349H57.2424V51.1147ZM58.2423 58.2426H54.5919V54.5926H58.2423V58.2426Z" fill="url(#paint25_linear)"/>
<path d="M55.4844 47.5693H57.2423V49.3195H55.4844V47.5693Z" fill="url(#paint26_linear)"/>
<path d="M55.4844 44.0591H57.2423V45.8641H55.4844V44.0591Z" fill="url(#paint27_linear)"/>
<path d="M55.4844 40.5435H57.2423V42.3012H55.4844V40.5435Z" fill="url(#paint28_linear)"/>
<path d="M55.4844 37.0283H57.2423V38.786H55.4844V37.0283Z" fill="url(#paint29_linear)"/>
<path d="M8.87109 35.2915V47.6849H14.2777C14.7141 50.5714 17.4213 52.8721 20.3535 52.8182C27.9367 52.678 28.6936 41.8048 21.2728 40.5627L21.2733 40.502H21.266V35.2916H8.87109V35.2915ZM16.0157 45.8888C16.3057 44.1315 17.7573 42.656 19.5082 42.332V45.9272H16.0088C16.011 45.9143 16.0134 45.9017 16.0157 45.8888ZM10.629 45.9272V37.0492H19.5082V40.4875V40.5499C16.7955 40.8907 14.5201 43.2085 14.2324 45.9273H14.1684H10.629V45.9272ZM24.7594 46.6552C24.6948 51.852 17.2936 52.6824 16.0682 47.6849H21.266V42.346C23.2575 42.7685 24.7594 44.5445 24.7594 46.6552Z" fill="url(#paint30_linear)"/>
<path d="M46.6839 9.09766L44.8947 10.8868L47.8671 10.8858L37.058 21.6936L37.0589 18.7216L35.2695 20.5107V24.7247H39.4842L41.2735 22.9356L38.3011 22.9364L49.1101 12.1287L49.1093 15.1008L50.8986 13.3117V9.09766H46.6839Z" fill="url(#paint31_linear)"/>
<path d="M12.4473 38.7856H14.2052V40.5433H12.4473V38.7856Z" fill="url(#paint32_linear)"/>
</g>
<defs>
<linearGradient id="paint0_linear" x1="55.545" y1="0" x2="55.545" y2="8.90555" gradientUnits="userSpaceOnUse">
<stop stop-color="#6F72D9"/>
<stop offset="0.973958" stop-color="#2AD1AB"/>
<stop offset="1" stop-opacity="0"/>
</linearGradient>
<linearGradient id="paint1_linear" x1="29.9944" y1="0" x2="29.9944" y2="7.16531" gradientUnits="userSpaceOnUse">
<stop stop-color="#6F72D9"/>
<stop offset="0.973958" stop-color="#2AD1AB"/>
<stop offset="1" stop-opacity="0"/>
</linearGradient>
<linearGradient id="paint2_linear" x1="17.6343" y1="24.7246" x2="17.6343" y2="60" gradientUnits="userSpaceOnUse">
<stop stop-color="#6F72D9"/>
<stop offset="0.973958" stop-color="#2AD1AB"/>
<stop offset="1" stop-opacity="0"/>
</linearGradient>
<linearGradient id="paint3_linear" x1="22.084" y1="2.68164" x2="22.084" y2="4.43934" gradientUnits="userSpaceOnUse">
<stop stop-color="#6F72D9"/>
<stop offset="0.973958" stop-color="#2AD1AB"/>
<stop offset="1" stop-opacity="0"/>
</linearGradient>
<linearGradient id="paint4_linear" x1="18.5684" y1="2.68164" x2="18.5684" y2="4.43934" gradientUnits="userSpaceOnUse">
<stop stop-color="#6F72D9"/>
<stop offset="0.973958" stop-color="#2AD1AB"/>
<stop offset="1" stop-opacity="0"/>
</linearGradient>
<linearGradient id="paint5_linear" x1="15.0528" y1="2.68164" x2="15.0528" y2="4.43934" gradientUnits="userSpaceOnUse">
<stop stop-color="#6F72D9"/>
<stop offset="0.973958" stop-color="#2AD1AB"/>
<stop offset="1" stop-opacity="0"/>
</linearGradient>
<linearGradient id="paint6_linear" x1="11.5372" y1="2.68164" x2="11.5372" y2="4.43934" gradientUnits="userSpaceOnUse">
<stop stop-color="#6F72D9"/>
<stop offset="0.973958" stop-color="#2AD1AB"/>
<stop offset="1" stop-opacity="0"/>
</linearGradient>
<linearGradient id="paint7_linear" x1="48.4532" y1="2.68164" x2="48.4532" y2="4.43934" gradientUnits="userSpaceOnUse">
<stop stop-color="#6F72D9"/>
<stop offset="0.973958" stop-color="#2AD1AB"/>
<stop offset="1" stop-opacity="0"/>
</linearGradient>
<linearGradient id="paint8_linear" x1="44.9376" y1="2.68164" x2="44.9376" y2="4.43934" gradientUnits="userSpaceOnUse">
<stop stop-color="#6F72D9"/>
<stop offset="0.973958" stop-color="#2AD1AB"/>
<stop offset="1" stop-opacity="0"/>
</linearGradient>
<linearGradient id="paint9_linear" x1="41.4219" y1="2.68164" x2="41.4219" y2="4.43934" gradientUnits="userSpaceOnUse">
<stop stop-color="#6F72D9"/>
<stop offset="0.973958" stop-color="#2AD1AB"/>
<stop offset="1" stop-opacity="0"/>
</linearGradient>
<linearGradient id="paint10_linear" x1="37.9063" y1="2.68164" x2="37.9063" y2="4.43934" gradientUnits="userSpaceOnUse">
<stop stop-color="#6F72D9"/>
<stop offset="0.973958" stop-color="#2AD1AB"/>
<stop offset="1" stop-opacity="0"/>
</linearGradient>
<linearGradient id="paint11_linear" x1="48.4532" y1="55.5386" x2="48.4532" y2="57.2963" gradientUnits="userSpaceOnUse">
<stop stop-color="#6F72D9"/>
<stop offset="0.973958" stop-color="#2AD1AB"/>
<stop offset="1" stop-opacity="0"/>
</linearGradient>
<linearGradient id="paint12_linear" x1="44.9376" y1="55.5386" x2="44.9376" y2="57.2963" gradientUnits="userSpaceOnUse">
<stop stop-color="#6F72D9"/>
<stop offset="0.973958" stop-color="#2AD1AB"/>
<stop offset="1" stop-opacity="0"/>
</linearGradient>
<linearGradient id="paint13_linear" x1="41.4219" y1="55.5386" x2="41.4219" y2="57.2963" gradientUnits="userSpaceOnUse">
<stop stop-color="#6F72D9"/>
<stop offset="0.973958" stop-color="#2AD1AB"/>
<stop offset="1" stop-opacity="0"/>
</linearGradient>
<linearGradient id="paint14_linear" x1="37.9063" y1="55.5386" x2="37.9063" y2="57.2963" gradientUnits="userSpaceOnUse">
<stop stop-color="#6F72D9"/>
<stop offset="0.973958" stop-color="#2AD1AB"/>
<stop offset="1" stop-opacity="0"/>
</linearGradient>
<linearGradient id="paint15_linear" x1="56.4171" y1="24.7246" x2="56.4171" y2="35.2705" gradientUnits="userSpaceOnUse">
<stop stop-color="#6F72D9"/>
<stop offset="0.973958" stop-color="#2AD1AB"/>
<stop offset="1" stop-opacity="0"/>
</linearGradient>
<linearGradient id="paint16_linear" x1="56.3633" y1="21.2271" x2="56.3633" y2="22.9673" gradientUnits="userSpaceOnUse">
<stop stop-color="#6F72D9"/>
<stop offset="0.973958" stop-color="#2AD1AB"/>
<stop offset="1" stop-opacity="0"/>
</linearGradient>
<linearGradient id="paint17_linear" x1="56.3633" y1="17.6938" x2="56.3633" y2="19.4315" gradientUnits="userSpaceOnUse">
<stop stop-color="#6F72D9"/>
<stop offset="0.973958" stop-color="#2AD1AB"/>
<stop offset="1" stop-opacity="0"/>
</linearGradient>
<linearGradient id="paint18_linear" x1="56.3633" y1="14.1782" x2="56.3633" y2="15.9758" gradientUnits="userSpaceOnUse">
<stop stop-color="#6F72D9"/>
<stop offset="0.973958" stop-color="#2AD1AB"/>
<stop offset="1" stop-opacity="0"/>
</linearGradient>
<linearGradient id="paint19_linear" x1="56.3633" y1="10.6631" x2="56.3633" y2="12.4208" gradientUnits="userSpaceOnUse">
<stop stop-color="#6F72D9"/>
<stop offset="0.973958" stop-color="#2AD1AB"/>
<stop offset="1" stop-opacity="0"/>
</linearGradient>
<linearGradient id="paint20_linear" x1="3.62701" y1="21.2271" x2="3.62701" y2="22.9673" gradientUnits="userSpaceOnUse">
<stop stop-color="#6F72D9"/>
<stop offset="0.973958" stop-color="#2AD1AB"/>
<stop offset="1" stop-opacity="0"/>
</linearGradient>
<linearGradient id="paint21_linear" x1="3.62701" y1="17.6938" x2="3.62701" y2="19.4315" gradientUnits="userSpaceOnUse">
<stop stop-color="#6F72D9"/>
<stop offset="0.973958" stop-color="#2AD1AB"/>
<stop offset="1" stop-opacity="0"/>
</linearGradient>
<linearGradient id="paint22_linear" x1="3.62701" y1="14.1782" x2="3.62701" y2="15.9758" gradientUnits="userSpaceOnUse">
<stop stop-color="#6F72D9"/>
<stop offset="0.973958" stop-color="#2AD1AB"/>
<stop offset="1" stop-opacity="0"/>
</linearGradient>
<linearGradient id="paint23_linear" x1="3.62701" y1="10.6631" x2="3.62701" y2="12.4208" gradientUnits="userSpaceOnUse">
<stop stop-color="#6F72D9"/>
<stop offset="0.973958" stop-color="#2AD1AB"/>
<stop offset="1" stop-opacity="0"/>
</linearGradient>
<linearGradient id="paint24_linear" x1="4.4502" y1="0" x2="4.4502" y2="8.90555" gradientUnits="userSpaceOnUse">
<stop stop-color="#6F72D9"/>
<stop offset="0.973958" stop-color="#2AD1AB"/>
<stop offset="1" stop-opacity="0"/>
</linearGradient>
<linearGradient id="paint25_linear" x1="55.545" y1="51.1147" x2="55.545" y2="60.0003" gradientUnits="userSpaceOnUse">
<stop stop-color="#6F72D9"/>
<stop offset="0.973958" stop-color="#2AD1AB"/>
<stop offset="1" stop-opacity="0"/>
</linearGradient>
<linearGradient id="paint26_linear" x1="56.3633" y1="47.5693" x2="56.3633" y2="49.3195" gradientUnits="userSpaceOnUse">
<stop stop-color="#6F72D9"/>
<stop offset="0.973958" stop-color="#2AD1AB"/>
<stop offset="1" stop-opacity="0"/>
</linearGradient>
<linearGradient id="paint27_linear" x1="56.3633" y1="44.0591" x2="56.3633" y2="45.8641" gradientUnits="userSpaceOnUse">
<stop stop-color="#6F72D9"/>
<stop offset="0.973958" stop-color="#2AD1AB"/>
<stop offset="1" stop-opacity="0"/>
</linearGradient>
<linearGradient id="paint28_linear" x1="56.3633" y1="40.5435" x2="56.3633" y2="42.3012" gradientUnits="userSpaceOnUse">
<stop stop-color="#6F72D9"/>
<stop offset="0.973958" stop-color="#2AD1AB"/>
<stop offset="1" stop-opacity="0"/>
</linearGradient>
<linearGradient id="paint29_linear" x1="56.3633" y1="37.0283" x2="56.3633" y2="38.786" gradientUnits="userSpaceOnUse">
<stop stop-color="#6F72D9"/>
<stop offset="0.973958" stop-color="#2AD1AB"/>
<stop offset="1" stop-opacity="0"/>
</linearGradient>
<linearGradient id="paint30_linear" x1="17.6641" y1="35.2915" x2="17.6641" y2="52.8191" gradientUnits="userSpaceOnUse">
<stop stop-color="#6F72D9"/>
<stop offset="0.973958" stop-color="#2AD1AB"/>
<stop offset="1" stop-opacity="0"/>
</linearGradient>
<linearGradient id="paint31_linear" x1="43.0841" y1="9.09766" x2="43.0841" y2="24.7247" gradientUnits="userSpaceOnUse">
<stop stop-color="#6F72D9"/>
<stop offset="0.973958" stop-color="#2AD1AB"/>
<stop offset="1" stop-opacity="0"/>
</linearGradient>
<linearGradient id="paint32_linear" x1="13.3262" y1="38.7856" x2="13.3262" y2="40.5433" gradientUnits="userSpaceOnUse">
<stop stop-color="#6F72D9"/>
<stop offset="0.973958" stop-color="#2AD1AB"/>
<stop offset="1" stop-opacity="0"/>
</linearGradient>
<clipPath id="clip0">
<rect width="60" height="60" fill="white"/>
</clipPath>
</defs>
</svg>
