<svg width="31" height="35" viewBox="0 0 31 35" fill="none" xmlns="http://www.w3.org/2000/svg">
<path d="M29.769 7.68803C26.0952 7.68803 23.1063 4.69917 23.1063 1.02539C23.1063 0.459023 22.647 0 22.0809 0H16.5892C16.0228 0 15.5638 0.459023 15.5638 1.02539V23.5407C15.5638 25.7005 13.8068 27.4575 11.6468 27.4575C9.48705 27.4575 7.73 25.7005 7.73 23.5407C7.73 21.3807 9.48705 19.6237 11.6468 19.6237C12.2131 19.6237 12.6722 19.1647 12.6722 18.5983V13.1066C12.6722 12.5405 12.2131 12.0812 11.6468 12.0812C5.32807 12.0812 0.1875 17.222 0.1875 23.5407C0.1875 29.8594 5.32807 35 11.6468 35C17.9655 35 23.1063 29.8594 23.1063 23.5407V13.5744C25.1472 14.6626 27.418 15.2305 29.769 15.2305C30.3353 15.2305 30.7943 14.7715 30.7943 14.2051V8.71342C30.7943 8.14732 30.3353 7.68803 29.769 7.68803ZM28.7436 13.1373C26.5545 12.9552 24.4756 12.1904 22.6796 10.8985C22.3674 10.6737 21.9557 10.6427 21.6131 10.8184C21.2708 10.9936 21.0555 11.3461 21.0555 11.7308V23.5407C21.0555 28.7286 16.8346 32.9492 11.6468 32.9492C6.45894 32.9492 2.23828 28.7286 2.23828 23.5407C2.23828 18.6992 5.9142 14.6999 10.6214 14.1875V17.661C7.81758 18.1486 5.67921 20.5994 5.67921 23.5407C5.67921 26.8313 8.35618 29.5086 11.6468 29.5086C14.9376 29.5086 17.6146 26.8313 17.6146 23.5407V2.05078H21.1153C21.5851 6.03752 24.7568 9.20929 28.7436 9.67899V13.1373Z" fill="url(#paint0_linear)"/>
<defs>
<linearGradient id="paint0_linear" x1="15.4909" y1="0" x2="15.4909" y2="35" gradientUnits="userSpaceOnUse">
<stop stop-color="#6F72D9"/>
<stop offset="1" stop-color="#2AD1AB"/>
</linearGradient>
</defs>
</svg>
