<svg width="60" height="60" fill="none" xmlns="http://www.w3.org/2000/svg"><path d="M55.313 15h-1.218a8.438 8.438 0 10-12.565 0H30V5.625a.938.938 0 00-.938-.938h-3.75a.938.938 0 00-.937.938V15h-.938V1.875A.938.938 0 0022.5.937h-3.75a.938.938 0 00-.938.938V15h-.937V8.437a.938.938 0 00-.938-.937h-3.75a.938.938 0 00-.937.937V15H4.687a3.754 3.754 0 00-3.75 3.75v28.125a3.754 3.754 0 003.75 3.75h19.325l-1.25 3.75h-3.075a.937.937 0 00-.937.938v1.874H9.375a.937.937 0 100 1.876h41.25a.938.938 0 000-1.876H41.25v-1.874a.938.938 0 00-.938-.938H37.24l-1.25-3.75h19.324a3.755 3.755 0 003.75-3.75V18.75a3.754 3.754 0 00-3.75-3.75zM48.75 2.88a6.576 6.576 0 015.557 5.557H48.75V2.88zm-.55 7.433h6.107a6.558 6.558 0 01-10.423 4.316l4.316-4.316zm-6.95-.938a6.573 6.573 0 015.625-6.495v6.107l-4.316 4.316a6.528 6.528 0 01-1.309-3.928zm-15-2.813h1.875v17.813H26.25V6.562zm-2.813 10.313h.938v7.5h-.938v-7.5zm-3.75-14.063h1.875v21.563h-1.875V2.812zm-2.812 14.063h.938v7.5h-.938v-7.5zm-3.75-7.5H15v15h-1.875v-15zm26.25 46.875v.938h-18.75v-.938h18.75zm-14.637-1.875l1.25-3.75h8.023l1.25 3.75H24.739zm32.45-7.5a1.878 1.878 0 01-1.876 1.875H4.688a1.878 1.878 0 01-1.875-1.875V45h54.374v1.875zm0-3.75H2.812V18.75a1.878 1.878 0 011.876-1.875h6.562v7.5h-.938V18.75a.938.938 0 00-.937-.938h-3.75a.937.937 0 00-.938.938v6.563a.937.937 0 00.938.937h30a.938.938 0 00.938-.938V18.75a.938.938 0 00-.938-.938h-3.75a.937.937 0 00-.938.938v5.625H30v-7.5h13.955a8.407 8.407 0 007.715 0h3.642a1.878 1.878 0 011.876 1.875v24.375zM8.438 19.687v4.688H6.562v-4.688h1.875zm24.374 4.688v-4.688h1.876v4.688h-1.876z" fill="url(#paint0_linear)"/><path d="M11.25 45.938H5.625a.938.938 0 000 1.874h5.625a.938.938 0 000-1.874z" fill="url(#paint1_linear)"/><path d="M15 45.938h-.938a.938.938 0 000 1.874H15a.938.938 0 000-1.874z" fill="url(#paint2_linear)"/><path d="M40.313 24.375a.934.934 0 00.662-.275l3.476-3.475H52.5a.937.937 0 100-1.875h-8.438a.935.935 0 00-.662.275l-3.75 3.75a.938.938 0 00.663 1.6z" fill="url(#paint3_linear)"/><path d="M52.5 34.688a2.813 2.813 0 00-2.432 1.402l-9.815-5.726a2.813 2.813 0 00-5.52.07l-9.877 7.408a2.81 2.81 0 00-4.86.256l-9.763-4.068a2.814 2.814 0 10-.23 1.935l9.762 4.067a2.812 2.812 0 005.501-.154l9.877-7.408a2.81 2.81 0 004.788-.123l9.815 5.726a2.813 2.813 0 102.753-3.386zm-44.063.004a.94.94 0 110-.005v.005zm14.062 5.62a.939.939 0 01-.937-.937v-.005a.938.938 0 11.937.943zm15-8.437a.938.938 0 110-1.875.938.938 0 010 1.875zm15 6.563a.938.938 0 110-1.876.938.938 0 010 1.876z" fill="url(#paint4_linear)"/><path d="M45 40.313h-6.563a.938.938 0 000 1.874H45a.938.938 0 000-1.874z" fill="url(#paint5_linear)"/><path d="M45 37.5h-2.813a.938.938 0 000 1.875H45a.938.938 0 000-1.875z" fill="url(#paint6_linear)"/><path d="M5.625 29.063h10.313a.938.938 0 000-1.875H5.624a.938.938 0 000 1.875z" fill="url(#paint7_linear)"/><path d="M18.75 29.063h.938a.938.938 0 000-1.875h-.938a.938.938 0 000 1.875z" fill="url(#paint8_linear)"/><defs><linearGradient id="paint0_linear" x1="30" y1=".93" x2="30" y2="59.063" gradientUnits="userSpaceOnUse"><stop stop-color="#6F72D9"/><stop offset="1" stop-color="#2AD1AB"/></linearGradient><linearGradient id="paint1_linear" x1="8.438" y1="45.938" x2="8.438" y2="47.813" gradientUnits="userSpaceOnUse"><stop stop-color="#6F72D9"/><stop offset="1" stop-color="#2AD1AB"/></linearGradient><linearGradient id="paint2_linear" x1="14.531" y1="45.938" x2="14.531" y2="47.813" gradientUnits="userSpaceOnUse"><stop stop-color="#6F72D9"/><stop offset="1" stop-color="#2AD1AB"/></linearGradient><linearGradient id="paint3_linear" x1="46.406" y1="18.75" x2="46.406" y2="24.375" gradientUnits="userSpaceOnUse"><stop stop-color="#6F72D9"/><stop offset="1" stop-color="#2AD1AB"/></linearGradient><linearGradient id="paint4_linear" x1="29.997" y1="28.125" x2="29.997" y2="42.187" gradientUnits="userSpaceOnUse"><stop stop-color="#6F72D9"/><stop offset="1" stop-color="#2AD1AB"/></linearGradient><linearGradient id="paint5_linear" x1="41.719" y1="40.313" x2="41.719" y2="42.188" gradientUnits="userSpaceOnUse"><stop stop-color="#6F72D9"/><stop offset="1" stop-color="#2AD1AB"/></linearGradient><linearGradient id="paint6_linear" x1="43.594" y1="37.5" x2="43.594" y2="39.375" gradientUnits="userSpaceOnUse"><stop stop-color="#6F72D9"/><stop offset="1" stop-color="#2AD1AB"/></linearGradient><linearGradient id="paint7_linear" x1="10.781" y1="27.188" x2="10.781" y2="29.063" gradientUnits="userSpaceOnUse"><stop stop-color="#6F72D9"/><stop offset="1" stop-color="#2AD1AB"/></linearGradient><linearGradient id="paint8_linear" x1="19.219" y1="27.188" x2="19.219" y2="29.063" gradientUnits="userSpaceOnUse"><stop stop-color="#6F72D9"/><stop offset="1" stop-color="#2AD1AB"/></linearGradient></defs></svg>