<svg width="58" height="60" fill="none" xmlns="http://www.w3.org/2000/svg"><path d="M9.9 59c9.935.988 18.02 1 18.1 1h2c.08 0 8.165-.012 18.1-1.005 3.482-.348 6.05-1.723 7.637-4.086 2.33-3.475 1.819-8.188 1.22-10.194C53.89 34.4 51.784 10.69 51.213 3.67A3.971 3.971 0 0047.225 0h-2.6a1.632 1.632 0 00-1.635 1.61l-.014.484v.021C42.59 11.278 35.464 15.453 29 15.453c-6.464 0-13.584-4.172-13.976-13.32v-.032l-.014-.485A1.632 1.632 0 0013.372 0h-2.6a3.971 3.971 0 00-3.984 3.67C6.217 10.69 4.11 34.4 1.042 44.714c-.6 2.006-1.11 6.72 1.22 10.194C3.85 57.272 6.419 58.647 9.9 59zM29 17.453a16.34 16.34 0 0012.024-5.086C38.394 18.92 33.538 22 29 22c-4.538 0-9.393-3.08-12.023-9.63A16.343 16.343 0 0029 17.452zM2.958 45.285C6 35.07 8.044 12.893 8.782 3.831a1.98 1.98 0 011.993-1.83h2.243v.184C13.448 17.171 21.6 24 29 24c7.4 0 15.563-6.836 15.978-21.844L44.982 2h2.243a1.983 1.983 0 011.993 1.831c.738 9.062 2.782 31.24 5.824 41.454.405 1.362 1.02 5.547-.966 8.51-1.237 1.844-3.315 2.924-6.176 3.21-9.83.983-17.821.995-17.9.995h-2c-.08 0-8.063-.01-17.9-.995-2.861-.286-4.94-1.366-6.176-3.21-1.987-2.963-1.371-7.148-.966-8.51z" fill="url(#paint0_linear)"/><path d="M10.3 55.015a.856.856 0 00.1.005 1.001 1.001 0 00.1-2c-2.437-.244-3.052-1.158-3.254-1.459-.959-1.43-.764-4.1-.453-5.139a1 1 0 00-1.916-.572c-.389 1.3-.727 4.685.71 6.827.33.498 1.338 2.001 4.712 2.338z" fill="url(#paint1_linear)"/><path d="M47.6 55.02a.835.835 0 00.1-.005c3.373-.337 4.382-1.84 4.714-2.334 1.436-2.141 1.1-5.523.71-6.826a1 1 0 00-1.917.572c.311 1.044.506 3.708-.454 5.139-.2.3-.816 1.215-3.252 1.459a1.001 1.001 0 10.1 2v-.005z" fill="url(#paint2_linear)"/><defs><linearGradient id="paint0_linear" x1="28.999" y1="0" x2="28.999" y2="60" gradientUnits="userSpaceOnUse"><stop stop-color="#6F72D9"/><stop offset="1" stop-color="#2AD1AB"/></linearGradient><linearGradient id="paint1_linear" x1="7.995" y1="45.156" x2="7.995" y2="55.021" gradientUnits="userSpaceOnUse"><stop stop-color="#6F72D9"/><stop offset="1" stop-color="#2AD1AB"/></linearGradient><linearGradient id="paint2_linear" x1="50.005" y1="45.161" x2="50.005" y2="55.026" gradientUnits="userSpaceOnUse"><stop stop-color="#6F72D9"/><stop offset="1" stop-color="#2AD1AB"/></linearGradient></defs></svg>