<svg width="60" height="60" fill="none" xmlns="http://www.w3.org/2000/svg"><g clip-path="url(#clip0)"><path d="M13.095 41.994a1.172 1.172 0 00-1.65.146l-2.931 3.498-1.06-.897a1.172 1.172 0 10-1.514 1.788l1.958 1.66a1.172 1.172 0 001.656-.142l3.687-4.402a1.172 1.172 0 00-.146-1.651z" fill="url(#paint0_linear)"/><path d="M57.518 23.92h-1.684c-1.41-.066-2.545-1.267-3.858-2.658-.877-.929-1.816-1.923-2.947-2.66V8.584c0-1.765-1.436-3.2-3.2-3.2H7.605a3.204 3.204 0 00-3.2 3.2v8.129a1.172 1.172 0 102.344 0v-8.13c0-.463.392-.855.856-.855h12.968v10.368a1.172 1.172 0 001.793.994l4.352-2.72 4.35 2.72a1.172 1.172 0 001.793-.994V7.728h12.968c.464 0 .856.392.856.856v9.024a6.41 6.41 0 00-1.205-.135h-6.64c-1.413.022-2.139.662-2.499 1.195-.56.828-.61 1.95-.146 3.156.108.282.24.548.392.799H27.7a3.466 3.466 0 00-3.276 4.584h-.311a3.466 3.466 0 00-3.463 3.463 3.467 3.467 0 003.463 3.463h.31a3.469 3.469 0 003.093 4.58 3.467 3.467 0 003.275 4.586h14.52c.5 0 .955-.061 1.375-.166v3.672a.87.87 0 01-.857.86H18.684c.23-.82.356-1.681.356-2.572 0-5.25-4.27-9.52-9.52-9.52-.964 0-1.894.145-2.771.412V27.25a1.172 1.172 0 10-2.344 0v9.82C1.759 38.764 0 41.725 0 45.093c0 5.251 4.27 9.524 9.52 9.524a9.523 9.523 0 008.15-4.609h28.16c1.764 0 3.2-1.437 3.2-3.203V41.98c.258-.185.506-.374.746-.56 1.035-.797 1.928-1.486 3.351-1.486h4.392A2.483 2.483 0 0060 37.456V26.401a2.485 2.485 0 00-2.482-2.482zm-27.001-7.94l-3.177-1.986a1.172 1.172 0 00-1.243 0l-3.18 1.988V7.728h7.6v8.253zM9.52 52.274c-3.957 0-7.176-3.221-7.176-7.18 0-3.957 3.219-7.177 7.176-7.177 3.957 0 7.176 3.22 7.176 7.177 0 3.959-3.219 7.18-7.176 7.18zm48.136-14.817a.14.14 0 01-.138.135h-4.392c-2.221 0-3.582 1.048-4.782 1.973-1.009.778-1.805 1.392-3.034 1.392H30.791a1.12 1.12 0 010-2.238h3.89a1.172 1.172 0 000-2.344H27.7a1.122 1.122 0 010-2.241h6.982a1.172 1.172 0 100-2.344h-10.57a1.12 1.12 0 01-1.119-1.119 1.12 1.12 0 011.119-1.119h10.57a1.172 1.172 0 000-2.343h-6.983a1.122 1.122 0 010-2.241h17.319a1.172 1.172 0 100-2.344h-4.243a2.543 2.543 0 01-2.394-1.64c-.223-.579-.162-.91-.099-1.003.064-.094.293-.158.585-.163h6.582c1.976.039 3.36 1.504 4.823 3.054 1.532 1.623 3.116 3.3 5.493 3.391l.044.001h1.71a.14.14 0 01.138.138v11.055z" fill="url(#paint1_linear)"/><path d="M5.578 23.155a1.175 1.175 0 000-2.347c-.647 0-1.172.524-1.172 1.172v.006a1.17 1.17 0 001.172 1.169z" fill="url(#paint2_linear)"/></g><defs><linearGradient id="paint0_linear" x1="9.52" y1="41.72" x2="9.52" y2="48.466" gradientUnits="userSpaceOnUse"><stop stop-color="#6F72D9"/><stop offset="1" stop-color="#2AD1AB"/></linearGradient><linearGradient id="paint1_linear" x1="30" y1="5.384" x2="30" y2="54.617" gradientUnits="userSpaceOnUse"><stop stop-color="#6F72D9"/><stop offset="1" stop-color="#2AD1AB"/></linearGradient><linearGradient id="paint2_linear" x1="5.578" y1="20.808" x2="5.578" y2="23.155" gradientUnits="userSpaceOnUse"><stop stop-color="#6F72D9"/><stop offset="1" stop-color="#2AD1AB"/></linearGradient><clipPath id="clip0"><path fill="#fff" d="M0 0h60v60H0z"/></clipPath></defs></svg>