<svg width="21" height="35" fill="none" xmlns="http://www.w3.org/2000/svg"><path d="M12.863 34.932H7.247a1.701 1.701 0 01-1.701-1.698V20.592H2.269a1.702 1.702 0 01-1.7-1.698v-5.417a1.7 1.7 0 011.7-1.698h3.277V9.066c0-2.69.846-4.978 2.447-6.617C9.6.802 11.848-.068 14.49-.068l4.283.007a1.702 1.702 0 011.699 1.697v5.03c0 .936-.763 1.698-1.701 1.698h-2.884c-.88 0-1.103.177-1.15.23-.08.09-.174.343-.174 1.041v2.144h3.991a1.701 1.701 0 011.717 1.698l-.002 5.417a1.7 1.7 0 01-1.701 1.697h-4.005v12.643c0 .936-.763 1.698-1.701 1.698zM7.602 32.88h4.906V19.673c0-.625.51-1.133 1.136-1.133h4.57l.002-4.71h-4.572a1.136 1.136 0 01-1.136-1.133V9.635c0-.801.082-1.713.688-2.398.732-.828 1.887-.924 2.692-.924l2.529-.001V1.99l-3.927-.007c-4.248 0-6.888 2.715-6.888 7.083v3.631c0 .625-.51 1.134-1.136 1.134H2.624v4.709h3.842c.626 0 1.136.508 1.136 1.133V32.88zM18.77 1.99z" fill="url(#paint0_linear)"/><defs><linearGradient id="paint0_linear" x1="10.521" y1="-.068" x2="10.521" y2="34.932" gradientUnits="userSpaceOnUse"><stop stop-color="#6F72D9"/><stop offset="1" stop-color="#2AD1AB"/></linearGradient></defs></svg>