<svg width="48" height="58" fill="none" xmlns="http://www.w3.org/2000/svg"><path d="M37.004 23.51a7.5 7.5 0 00-6.572-3.885H27.75V14h7.5A12.201 12.201 0 0047.438 1.812.938.938 0 0046.5.875h-45a.938.938 0 00-.938.938A12.201 12.201 0 0012.75 14h7.5v5.625h-2.682a7.5 7.5 0 00-6.572 3.886l-.31.564a66.815 66.815 0 00-8.248 32.112.938.938 0 00.937.938h41.25a.938.938 0 00.938-.938 66.816 66.816 0 00-8.249-32.112l-.31-.564zM2.48 2.75h43.04a10.327 10.327 0 01-10.27 9.375h-22.5A10.327 10.327 0 012.48 2.75zM22.125 14h3.75v5.625h-3.75V14zM4.319 55.25a64.947 64.947 0 018.01-30.272l.31-.564a5.625 5.625 0 014.929-2.914h12.864a5.624 5.624 0 014.929 2.914l.31.564a64.947 64.947 0 018.01 30.272H4.319z" fill="url(#paint0_linear)"/><path d="M24 24.313a14.063 14.063 0 1014.063 14.062A14.078 14.078 0 0024 24.312zm6.885 24.113l-.917-1.589-1.624.938.92 1.591a12.095 12.095 0 01-4.326 1.16v-1.839h-1.875v1.84a12.095 12.095 0 01-4.326-1.16l.919-1.592-1.624-.938-.917 1.589a12.286 12.286 0 01-3.166-3.166l1.589-.917-.938-1.624-1.591.92a12.095 12.095 0 01-1.16-4.327h1.838v-1.874h-1.839a12.095 12.095 0 011.16-4.326l1.592.919.938-1.624-1.589-.917a12.287 12.287 0 013.166-3.166l.917 1.589 1.624-.938-.92-1.591a12.097 12.097 0 014.326-1.16v1.838h1.875v-1.839a12.1 12.1 0 014.326 1.16l-.919 1.592 1.624.938.917-1.589a12.286 12.286 0 013.166 3.166l-1.589.917.938 1.624 1.591-.92a12.095 12.095 0 011.16 4.327h-1.839v1.874h1.84a12.095 12.095 0 01-1.16 4.326L33.4 42.72l-.938 1.624 1.589.917a12.286 12.286 0 01-3.166 3.166z" fill="url(#paint1_linear)"/><path d="M24.938 35.724v-4.849h-1.875v4.849a2.812 2.812 0 101.875 0zM24 39.313a.937.937 0 110-1.875.937.937 0 010 1.874z" fill="url(#paint2_linear)"/><defs><linearGradient id="paint0_linear" x1="24" y1=".875" x2="24" y2="57.125" gradientUnits="userSpaceOnUse"><stop stop-color="#6F72D9"/><stop offset="1" stop-color="#2AD1AB"/></linearGradient><linearGradient id="paint1_linear" x1="24" y1="24.313" x2="24" y2="52.438" gradientUnits="userSpaceOnUse"><stop stop-color="#6F72D9"/><stop offset="1" stop-color="#2AD1AB"/></linearGradient><linearGradient id="paint2_linear" x1="24" y1="30.875" x2="24" y2="41.188" gradientUnits="userSpaceOnUse"><stop stop-color="#6F72D9"/><stop offset="1" stop-color="#2AD1AB"/></linearGradient></defs></svg>