<svg width="60" height="60" fill="none" xmlns="http://www.w3.org/2000/svg"><path d="M48.75 1.875h-7.5a.937.937 0 00-.938.938v11.25a.938.938 0 01-.937.937H21.562c-.768 0-1.834-.637-1.875-.938V2.813a.938.938 0 00-.937-.937h-7.5a.937.937 0 00-.938.938v50.624A4.693 4.693 0 0015 58.126h30a4.693 4.693 0 004.688-4.688V2.813a.938.938 0 00-.938-.938zm-.938 1.875v2.813h-5.624V3.75h5.624zm-30 0v2.813h-5.625V3.75h5.626zM45 56.25H15a2.812 2.812 0 01-2.813-2.813v-45h5.626v5.626c0 1.687 2.257 2.812 3.75 2.812h17.812a2.812 2.812 0 002.813-2.813V8.439h5.624v45A2.812 2.812 0 0145 56.25z" fill="url(#paint0_linear)"/><path d="M33.046 24.758l-.47 1.817a10.312 10.312 0 01-.646 20.111l1.117-1.593-1.536-1.076-2.281 3.26a.938.938 0 00.23 1.304l3.258 2.281 1.076-1.537-1.219-.855a12.187 12.187 0 00.469-23.712h.002z" fill="url(#paint1_linear)"/><path d="M28.486 29.108l2.281-3.258a.938.938 0 00-.23-1.305l-3.257-2.282-1.075 1.536 1.219.855a12.187 12.187 0 00-.469 23.712l.469-1.816a10.313 10.313 0 01.647-20.112l-1.118 1.594 1.533 1.076z" fill="url(#paint2_linear)"/><defs><linearGradient id="paint0_linear" x1="30" y1="1.875" x2="30" y2="58.125" gradientUnits="userSpaceOnUse"><stop stop-color="#6F72D9"/><stop offset="1" stop-color="#2AD1AB"/></linearGradient><linearGradient id="paint1_linear" x1="35.622" y1="24.758" x2="35.622" y2="50.862" gradientUnits="userSpaceOnUse"><stop stop-color="#6F72D9"/><stop offset="1" stop-color="#2AD1AB"/></linearGradient><linearGradient id="paint2_linear" x1="24.375" y1="22.263" x2="24.375" y2="48.366" gradientUnits="userSpaceOnUse"><stop stop-color="#6F72D9"/><stop offset="1" stop-color="#2AD1AB"/></linearGradient></defs></svg>