<svg width="34" height="34" fill="none" xmlns="http://www.w3.org/2000/svg"><g clip-path="url(#clip0)" fill="#fff"><path d="M25.68 16.545L13.41 8.177a.56.56 0 00-.872.461v16.734a.557.557 0 00.872.461l12.272-8.367a.558.558 0 000-.921zm-12.027 7.771V9.695l10.724 7.311-10.724 7.312z"/><path d="M17 .271C7.773.271.266 7.778.266 17.005.266 26.233 7.773 33.74 17 33.74c9.227 0 16.734-7.508 16.734-16.735S26.227.271 17 .271zm0 32.353c-8.612 0-15.619-7.007-15.619-15.619S8.388 1.387 17 1.387s15.618 7.006 15.618 15.618S25.612 32.624 17 32.624z"/><g filter="url(#filter0_d)" stroke="#fff" stroke-width=".76"><path d="M25.685 16.62L13.413 8.255a.56.56 0 00-.872.46V25.45a.557.557 0 00.872.46l12.272-8.367a.558.558 0 000-.921zm-12.028 7.773V9.77l10.724 7.312-10.724 7.31z"/><path d="M17.004.347C7.777.347.27 7.854.27 17.081c0 9.228 7.507 16.735 16.734 16.735 9.227 0 16.734-7.507 16.734-16.735 0-9.227-7.507-16.734-16.734-16.734zm0 32.353c-8.612 0-15.619-7.007-15.619-15.619 0-8.611 7.007-15.618 15.619-15.618S32.622 8.47 32.622 17.08c0 8.613-7.006 15.62-15.618 15.62z"/></g></g><defs><clipPath id="clip0"><path fill="#fff" transform="translate(.266 .271)" d="M0 0h33.468v33.468H0z"/></clipPath><filter id="filter0_d" x="-7.716" y="-7.638" width="49.439" height="49.439" filterUnits="userSpaceOnUse" color-interpolation-filters="sRGB"><feFlood flood-opacity="0" result="BackgroundImageFix"/><feColorMatrix in="SourceAlpha" values="0 0 0 0 0 0 0 0 0 0 0 0 0 0 0 0 0 0 127 0"/><feOffset/><feGaussianBlur stdDeviation="3.802"/><feColorMatrix values="0 0 0 0 0 0 0 0 0 0 0 0 0 0 0 0 0 0 0.25 0"/><feBlend in2="BackgroundImageFix" result="effect1_dropShadow"/><feBlend in="SourceGraphic" in2="effect1_dropShadow" result="shape"/></filter></defs></svg>