<svg width="60" height="60" fill="none" xmlns="http://www.w3.org/2000/svg"><g clip-path="url(#clip0)"><path d="M35.729 37.026L25.5 34.62v-7.049c.087-.068.177-.129.263-.2A15.886 15.886 0 0031.452 16h.048a1 1 0 001-1v-1c0-7.732-6.268-14-14-14s-14 6.268-14 14v2a1 1 0 001 1 .998.998 0 00.122-.019 15.911 15.911 0 005.615 10.39c.085.071.176.132.263.2v7.049L1.271 37.026A1 1 0 00.5 38v21a1 1 0 001 1h34a1 1 0 001-1V38a1 1 0 00-.771-.974zM11.5 58h-9V38.792l9-2.117V58zm-5-44c0-6.627 5.373-12 12-12s12 5.373 12 12h-3a5.006 5.006 0 01-5-5 1 1 0 00-1.217-.977l-.6.134A43.02 43.02 0 006.5 14.107V14zm17 44h-10V39.721l3.544-1.181-2.509 9.2a1 1 0 00.07.71l3 6a1 1 0 001.789 0l3-6a1 1 0 00.07-.71l-2.509-9.2 3.545 1.181V58zm-10-20.388v-1.994l2.393 1.2-2.393.794zm5 3.188l1.935 7.095-1.935 3.869-1.935-3.869L18.5 40.8zm5-3.188l-2.393-.8 2.393-1.194v1.994zm0-4.231l-5 2.5-5-2.5V28.83a11.332 11.332 0 005 1.17 11.332 11.332 0 005-1.171v4.552zm-10.981-7.547A13.906 13.906 0 017.546 15.82a41.019 41.019 0 0113.062-5.594A7.012 7.012 0 0027.5 16h1.952a13.886 13.886 0 01-4.97 9.834 9.341 9.341 0 01-11.963 0zM34.5 58h-9V36.675l9 2.117V58z" fill="url(#paint0_linear)"/><path d="M26.5 16h-6a1 1 0 00-1 1v1h-2v-1a1 1 0 00-1-1h-6a1 1 0 00-1 1v4a1 1 0 001 1h6a1 1 0 001-1v-1h2v1a1 1 0 001 1h6a1 1 0 001-1v-4a1 1 0 00-1-1zm-11 4h-4v-2h4v2zm10 0h-4v-2h4v2z" fill="url(#paint1_linear)"/><path d="M59.16 24.932a1.853 1.853 0 00-.444-.443v-.003l-2.084-1.47L57.7 20.7a1.851 1.851 0 00-1.515-2.62l-2.538-.229-.229-2.54a1.852 1.852 0 00-2.618-1.51l-2.314 1.068-1.47-2.085a1.853 1.853 0 00-3.027 0l-1.47 2.084L40.2 13.8a1.85 1.85 0 00-2.62 1.515l-.229 2.538-2.54.23a1.852 1.852 0 00-1.51 2.617l1.068 2.314-2.084 1.47a1.853 1.853 0 000 3.026l2.084 1.47L33.3 31.3a1.851 1.851 0 001.515 2.621l2.538.228.23 2.54c.054.599.397 1.134.917 1.435V50a1 1 0 001.707.707l5.293-5.293 5.293 5.293A1 1 0 0052.5 50V38.124c.521-.302.864-.837.918-1.437l.228-2.538 2.54-.229A1.852 1.852 0 0057.7 31.3l-1.069-2.314 2.085-1.47a1.853 1.853 0 00.444-2.584zM50.5 47.586l-4.292-4.293a1 1 0 00-1.414 0L40.5 47.586v-9.522l2.017-.932 1.47 2.085a1.853 1.853 0 003.026 0l1.47-2.084 2.017.931v9.522zm4.88-20.166a1.848 1.848 0 00-.613 2.291l1.035 2.235-2.452.221c-.892.079-1.6.786-1.68 1.678l-.223 2.455-2.233-1.033a1.852 1.852 0 00-2.291.612L45.5 37.892l-1.42-2.014a1.849 1.849 0 00-2.291-.613L39.555 36.3l-.221-2.45a1.851 1.851 0 00-1.678-1.682l-2.455-.223 1.033-2.233a1.848 1.848 0 00-.612-2.29L33.609 26l2.014-1.42c.732-.514.99-1.48.613-2.29L35.2 20.053l2.45-.22a1.851 1.851 0 001.682-1.679l.22-2.453 2.234 1.033c.81.378 1.776.12 2.29-.612l1.424-2.015 1.42 2.014c.514.732 1.48.99 2.29.613l2.236-1.035.22 2.451c.08.893.786 1.6 1.678 1.681l2.453.221-1.032 2.233a1.848 1.848 0 00.611 2.291L57.392 26l-2.014 1.42z" fill="url(#paint2_linear)"/><path d="M45.5 17a9 9 0 109 9 9.01 9.01 0 00-9-9zm0 16a7 7 0 117-7 7.008 7.008 0 01-7 7z" fill="url(#paint3_linear)"/><path d="M53.5 7h-2v2h2V7z" fill="url(#paint4_linear)"/><path d="M57.5 7h-2v2h2V7z" fill="url(#paint5_linear)"/><path d="M55.5 5h-2v2h2V5z" fill="url(#paint6_linear)"/><path d="M55.5 9h-2v2h2V9z" fill="url(#paint7_linear)"/><path d="M42.5 2h-2v2h2V2z" fill="url(#paint8_linear)"/><path d="M46.5 2h-2v2h2V2z" fill="url(#paint9_linear)"/><path d="M44.5 0h-2v2h2V0z" fill="url(#paint10_linear)"/><path d="M44.5 4h-2v2h2V4z" fill="url(#paint11_linear)"/></g><defs><linearGradient id="paint0_linear" x1="18.5" y1="0" x2="18.5" y2="60" gradientUnits="userSpaceOnUse"><stop stop-color="#6F72D9"/><stop offset="1" stop-color="#2AD1AB"/></linearGradient><linearGradient id="paint1_linear" x1="18.5" y1="16" x2="18.5" y2="22" gradientUnits="userSpaceOnUse"><stop stop-color="#6F72D9"/><stop offset="1" stop-color="#2AD1AB"/></linearGradient><linearGradient id="paint2_linear" x1="45.501" y1="12.001" x2="45.501" y2="51" gradientUnits="userSpaceOnUse"><stop stop-color="#6F72D9"/><stop offset="1" stop-color="#2AD1AB"/></linearGradient><linearGradient id="paint3_linear" x1="45.5" y1="17" x2="45.5" y2="35" gradientUnits="userSpaceOnUse"><stop stop-color="#6F72D9"/><stop offset="1" stop-color="#2AD1AB"/></linearGradient><linearGradient id="paint4_linear" x1="52.5" y1="7" x2="52.5" y2="9" gradientUnits="userSpaceOnUse"><stop stop-color="#6F72D9"/><stop offset="1" stop-color="#2AD1AB"/></linearGradient><linearGradient id="paint5_linear" x1="56.5" y1="7" x2="56.5" y2="9" gradientUnits="userSpaceOnUse"><stop stop-color="#6F72D9"/><stop offset="1" stop-color="#2AD1AB"/></linearGradient><linearGradient id="paint6_linear" x1="54.5" y1="5" x2="54.5" y2="7" gradientUnits="userSpaceOnUse"><stop stop-color="#6F72D9"/><stop offset="1" stop-color="#2AD1AB"/></linearGradient><linearGradient id="paint7_linear" x1="54.5" y1="9" x2="54.5" y2="11" gradientUnits="userSpaceOnUse"><stop stop-color="#6F72D9"/><stop offset="1" stop-color="#2AD1AB"/></linearGradient><linearGradient id="paint8_linear" x1="41.5" y1="2" x2="41.5" y2="4" gradientUnits="userSpaceOnUse"><stop stop-color="#6F72D9"/><stop offset="1" stop-color="#2AD1AB"/></linearGradient><linearGradient id="paint9_linear" x1="45.5" y1="2" x2="45.5" y2="4" gradientUnits="userSpaceOnUse"><stop stop-color="#6F72D9"/><stop offset="1" stop-color="#2AD1AB"/></linearGradient><linearGradient id="paint10_linear" x1="43.5" y1="0" x2="43.5" y2="2" gradientUnits="userSpaceOnUse"><stop stop-color="#6F72D9"/><stop offset="1" stop-color="#2AD1AB"/></linearGradient><linearGradient id="paint11_linear" x1="43.5" y1="4" x2="43.5" y2="6" gradientUnits="userSpaceOnUse"><stop stop-color="#6F72D9"/><stop offset="1" stop-color="#2AD1AB"/></linearGradient><clipPath id="clip0"><path fill="#fff" d="M0 0h60v60H0z"/></clipPath></defs></svg>