<svg width="60" height="60" fill="none" xmlns="http://www.w3.org/2000/svg"><g clip-path="url(#clip0)"><path d="M52.834 0v2.681H51.09V4.44h1.744v2.726h2.65v1.74h1.758v-1.74H60V0h-7.166zm5.408 5.408h-3.65v-3.65h3.65v3.65z" fill="url(#paint0_linear)"/><path d="M26.411 7.165h7.166V4.44h1.691V2.681h-1.69V0H26.41v2.681h-1.69V4.44h1.69v2.726zm1.758-5.407h3.65v3.65h-3.65v-3.65z" fill="url(#paint1_linear)"/><path d="M33.578 52.835h-2.704v-3.426h-1.758v3.426h-2.704v2.704H7.166v-2.704H4.623V33.58h2.543v-2.704h19.246v2.704h2.704v13.994h1.758V33.58h2.704v-7.165h-7.166v2.704H7.166v-2.704h-2.66v-1.69H2.748v1.69H0v7.165h2.865v19.255H0V60h7.166v-2.704h19.246V60h7.166v-2.704h1.69V55.54h-1.69v-2.704zM28.17 28.172h3.65v3.65h-3.65v-3.65zm-26.412 0h3.65v3.65h-3.65v-3.65zm3.65 30.07h-3.65v-3.65h3.65v3.65zm26.412 0h-3.65v-3.65h3.65v3.65z" fill="url(#paint2_linear)"/><path d="M21.205 2.682h1.758v1.757h-1.758V2.682z" fill="url(#paint3_linear)"/><path d="M17.69 2.682h1.757v1.757H17.69V2.682z" fill="url(#paint4_linear)"/><path d="M14.174 2.682h1.758v1.757h-1.758V2.682z" fill="url(#paint5_linear)"/><path d="M10.658 2.682h1.758v1.757h-1.758V2.682z" fill="url(#paint6_linear)"/><path d="M47.574 2.682h1.758v1.757h-1.758V2.682z" fill="url(#paint7_linear)"/><path d="M44.059 2.682h1.758v1.757h-1.758V2.682z" fill="url(#paint8_linear)"/><path d="M40.543 2.682h1.758v1.757h-1.758V2.682z" fill="url(#paint9_linear)"/><path d="M37.027 2.682h1.758v1.757h-1.758V2.682z" fill="url(#paint10_linear)"/><path d="M47.574 55.539h1.758v1.757h-1.758V55.54z" fill="url(#paint11_linear)"/><path d="M44.059 55.539h1.758v1.757h-1.758V55.54z" fill="url(#paint12_linear)"/><path d="M40.543 55.539h1.758v1.757h-1.758V55.54z" fill="url(#paint13_linear)"/><path d="M37.027 55.539h1.758v1.757h-1.758V55.54z" fill="url(#paint14_linear)"/><path d="M57.242 24.725h-1.758v1.69h-2.65v7.165h2.65v1.69h1.758v-1.69H60v-7.165h-2.758v-1.69zm1 7.098h-3.65v-3.65h3.65v3.65z" fill="url(#paint15_linear)"/><path d="M55.484 21.227h1.758v1.74h-1.758v-1.74z" fill="url(#paint16_linear)"/><path d="M55.484 17.694h1.758v1.738h-1.758v-1.738z" fill="url(#paint17_linear)"/><path d="M55.484 14.178h1.758v1.798h-1.758v-1.798z" fill="url(#paint18_linear)"/><path d="M55.484 10.663h1.758v1.758h-1.758v-1.758z" fill="url(#paint19_linear)"/><path d="M2.748 21.227h1.758v1.74H2.748v-1.74z" fill="url(#paint20_linear)"/><path d="M2.748 17.694h1.758v1.738H2.748v-1.738z" fill="url(#paint21_linear)"/><path d="M2.748 14.178h1.758v1.798H2.748v-1.798z" fill="url(#paint22_linear)"/><path d="M2.748 10.663h1.758v1.758H2.748v-1.758z" fill="url(#paint23_linear)"/><path d="M2.748 8.906h1.758v-1.74h2.66V4.438H8.9V2.681H7.166V0H0v7.165h2.748v1.74zm-.99-7.148h3.65v3.65h-3.65v-3.65z" fill="url(#paint24_linear)"/><path d="M57.242 51.115h-1.758v1.72h-2.65v2.704H51.09v1.758h1.744V60H60v-7.165h-2.758v-1.72zm1 7.128h-3.65v-3.65h3.65v3.65z" fill="url(#paint25_linear)"/><path d="M55.484 47.57h1.758v1.75h-1.758v-1.75z" fill="url(#paint26_linear)"/><path d="M55.484 44.06h1.758v1.804h-1.758V44.06z" fill="url(#paint27_linear)"/><path d="M55.484 40.544h1.758V42.3h-1.758v-1.758z" fill="url(#paint28_linear)"/><path d="M55.484 37.028h1.758v1.758h-1.758v-1.758z" fill="url(#paint29_linear)"/><path d="M8.871 35.291v12.394h5.407c.436 2.886 3.143 5.187 6.075 5.133 7.584-.14 8.34-11.013.92-12.255v-.061h-.007v-5.21H8.871zm7.145 10.598c.29-1.758 1.741-3.233 3.492-3.557v3.595h-3.5l.008-.038zm-5.387.038V37.05h8.88v3.5c-2.713.34-4.989 2.659-5.277 5.377H10.63zm14.13.728c-.064 5.197-7.465 6.027-8.69 1.03h5.197v-5.339a4.42 4.42 0 013.493 4.31z" fill="url(#paint30_linear)"/><path d="M46.684 9.098l-1.79 1.789 2.973-.001-10.809 10.808v-2.972L35.27 20.51v4.214h4.214l1.79-1.79-2.973.001 10.81-10.807-.002 2.972 1.79-1.79V9.099h-4.215z" fill="url(#paint31_linear)"/><path d="M12.447 38.786h1.758v1.757h-1.758v-1.757z" fill="url(#paint32_linear)"/></g><defs><linearGradient id="paint0_linear" x1="55.545" y1="0" x2="55.545" y2="8.906" gradientUnits="userSpaceOnUse"><stop stop-color="#6F72D9"/><stop offset=".974" stop-color="#2AD1AB"/><stop offset="1" stop-opacity="0"/></linearGradient><linearGradient id="paint1_linear" x1="29.994" y1="0" x2="29.994" y2="7.165" gradientUnits="userSpaceOnUse"><stop stop-color="#6F72D9"/><stop offset=".974" stop-color="#2AD1AB"/><stop offset="1" stop-opacity="0"/></linearGradient><linearGradient id="paint2_linear" x1="17.634" y1="24.725" x2="17.634" y2="60" gradientUnits="userSpaceOnUse"><stop stop-color="#6F72D9"/><stop offset=".974" stop-color="#2AD1AB"/><stop offset="1" stop-opacity="0"/></linearGradient><linearGradient id="paint3_linear" x1="22.084" y1="2.682" x2="22.084" y2="4.439" gradientUnits="userSpaceOnUse"><stop stop-color="#6F72D9"/><stop offset=".974" stop-color="#2AD1AB"/><stop offset="1" stop-opacity="0"/></linearGradient><linearGradient id="paint4_linear" x1="18.568" y1="2.682" x2="18.568" y2="4.439" gradientUnits="userSpaceOnUse"><stop stop-color="#6F72D9"/><stop offset=".974" stop-color="#2AD1AB"/><stop offset="1" stop-opacity="0"/></linearGradient><linearGradient id="paint5_linear" x1="15.053" y1="2.682" x2="15.053" y2="4.439" gradientUnits="userSpaceOnUse"><stop stop-color="#6F72D9"/><stop offset=".974" stop-color="#2AD1AB"/><stop offset="1" stop-opacity="0"/></linearGradient><linearGradient id="paint6_linear" x1="11.537" y1="2.682" x2="11.537" y2="4.439" gradientUnits="userSpaceOnUse"><stop stop-color="#6F72D9"/><stop offset=".974" stop-color="#2AD1AB"/><stop offset="1" stop-opacity="0"/></linearGradient><linearGradient id="paint7_linear" x1="48.453" y1="2.682" x2="48.453" y2="4.439" gradientUnits="userSpaceOnUse"><stop stop-color="#6F72D9"/><stop offset=".974" stop-color="#2AD1AB"/><stop offset="1" stop-opacity="0"/></linearGradient><linearGradient id="paint8_linear" x1="44.938" y1="2.682" x2="44.938" y2="4.439" gradientUnits="userSpaceOnUse"><stop stop-color="#6F72D9"/><stop offset=".974" stop-color="#2AD1AB"/><stop offset="1" stop-opacity="0"/></linearGradient><linearGradient id="paint9_linear" x1="41.422" y1="2.682" x2="41.422" y2="4.439" gradientUnits="userSpaceOnUse"><stop stop-color="#6F72D9"/><stop offset=".974" stop-color="#2AD1AB"/><stop offset="1" stop-opacity="0"/></linearGradient><linearGradient id="paint10_linear" x1="37.906" y1="2.682" x2="37.906" y2="4.439" gradientUnits="userSpaceOnUse"><stop stop-color="#6F72D9"/><stop offset=".974" stop-color="#2AD1AB"/><stop offset="1" stop-opacity="0"/></linearGradient><linearGradient id="paint11_linear" x1="48.453" y1="55.539" x2="48.453" y2="57.296" gradientUnits="userSpaceOnUse"><stop stop-color="#6F72D9"/><stop offset=".974" stop-color="#2AD1AB"/><stop offset="1" stop-opacity="0"/></linearGradient><linearGradient id="paint12_linear" x1="44.938" y1="55.539" x2="44.938" y2="57.296" gradientUnits="userSpaceOnUse"><stop stop-color="#6F72D9"/><stop offset=".974" stop-color="#2AD1AB"/><stop offset="1" stop-opacity="0"/></linearGradient><linearGradient id="paint13_linear" x1="41.422" y1="55.539" x2="41.422" y2="57.296" gradientUnits="userSpaceOnUse"><stop stop-color="#6F72D9"/><stop offset=".974" stop-color="#2AD1AB"/><stop offset="1" stop-opacity="0"/></linearGradient><linearGradient id="paint14_linear" x1="37.906" y1="55.539" x2="37.906" y2="57.296" gradientUnits="userSpaceOnUse"><stop stop-color="#6F72D9"/><stop offset=".974" stop-color="#2AD1AB"/><stop offset="1" stop-opacity="0"/></linearGradient><linearGradient id="paint15_linear" x1="56.417" y1="24.725" x2="56.417" y2="35.27" gradientUnits="userSpaceOnUse"><stop stop-color="#6F72D9"/><stop offset=".974" stop-color="#2AD1AB"/><stop offset="1" stop-opacity="0"/></linearGradient><linearGradient id="paint16_linear" x1="56.363" y1="21.227" x2="56.363" y2="22.967" gradientUnits="userSpaceOnUse"><stop stop-color="#6F72D9"/><stop offset=".974" stop-color="#2AD1AB"/><stop offset="1" stop-opacity="0"/></linearGradient><linearGradient id="paint17_linear" x1="56.363" y1="17.694" x2="56.363" y2="19.431" gradientUnits="userSpaceOnUse"><stop stop-color="#6F72D9"/><stop offset=".974" stop-color="#2AD1AB"/><stop offset="1" stop-opacity="0"/></linearGradient><linearGradient id="paint18_linear" x1="56.363" y1="14.178" x2="56.363" y2="15.976" gradientUnits="userSpaceOnUse"><stop stop-color="#6F72D9"/><stop offset=".974" stop-color="#2AD1AB"/><stop offset="1" stop-opacity="0"/></linearGradient><linearGradient id="paint19_linear" x1="56.363" y1="10.663" x2="56.363" y2="12.421" gradientUnits="userSpaceOnUse"><stop stop-color="#6F72D9"/><stop offset=".974" stop-color="#2AD1AB"/><stop offset="1" stop-opacity="0"/></linearGradient><linearGradient id="paint20_linear" x1="3.627" y1="21.227" x2="3.627" y2="22.967" gradientUnits="userSpaceOnUse"><stop stop-color="#6F72D9"/><stop offset=".974" stop-color="#2AD1AB"/><stop offset="1" stop-opacity="0"/></linearGradient><linearGradient id="paint21_linear" x1="3.627" y1="17.694" x2="3.627" y2="19.431" gradientUnits="userSpaceOnUse"><stop stop-color="#6F72D9"/><stop offset=".974" stop-color="#2AD1AB"/><stop offset="1" stop-opacity="0"/></linearGradient><linearGradient id="paint22_linear" x1="3.627" y1="14.178" x2="3.627" y2="15.976" gradientUnits="userSpaceOnUse"><stop stop-color="#6F72D9"/><stop offset=".974" stop-color="#2AD1AB"/><stop offset="1" stop-opacity="0"/></linearGradient><linearGradient id="paint23_linear" x1="3.627" y1="10.663" x2="3.627" y2="12.421" gradientUnits="userSpaceOnUse"><stop stop-color="#6F72D9"/><stop offset=".974" stop-color="#2AD1AB"/><stop offset="1" stop-opacity="0"/></linearGradient><linearGradient id="paint24_linear" x1="4.45" y1="0" x2="4.45" y2="8.906" gradientUnits="userSpaceOnUse"><stop stop-color="#6F72D9"/><stop offset=".974" stop-color="#2AD1AB"/><stop offset="1" stop-opacity="0"/></linearGradient><linearGradient id="paint25_linear" x1="55.545" y1="51.115" x2="55.545" y2="60" gradientUnits="userSpaceOnUse"><stop stop-color="#6F72D9"/><stop offset=".974" stop-color="#2AD1AB"/><stop offset="1" stop-opacity="0"/></linearGradient><linearGradient id="paint26_linear" x1="56.363" y1="47.569" x2="56.363" y2="49.319" gradientUnits="userSpaceOnUse"><stop stop-color="#6F72D9"/><stop offset=".974" stop-color="#2AD1AB"/><stop offset="1" stop-opacity="0"/></linearGradient><linearGradient id="paint27_linear" x1="56.363" y1="44.059" x2="56.363" y2="45.864" gradientUnits="userSpaceOnUse"><stop stop-color="#6F72D9"/><stop offset=".974" stop-color="#2AD1AB"/><stop offset="1" stop-opacity="0"/></linearGradient><linearGradient id="paint28_linear" x1="56.363" y1="40.544" x2="56.363" y2="42.301" gradientUnits="userSpaceOnUse"><stop stop-color="#6F72D9"/><stop offset=".974" stop-color="#2AD1AB"/><stop offset="1" stop-opacity="0"/></linearGradient><linearGradient id="paint29_linear" x1="56.363" y1="37.028" x2="56.363" y2="38.786" gradientUnits="userSpaceOnUse"><stop stop-color="#6F72D9"/><stop offset=".974" stop-color="#2AD1AB"/><stop offset="1" stop-opacity="0"/></linearGradient><linearGradient id="paint30_linear" x1="17.664" y1="35.291" x2="17.664" y2="52.819" gradientUnits="userSpaceOnUse"><stop stop-color="#6F72D9"/><stop offset=".974" stop-color="#2AD1AB"/><stop offset="1" stop-opacity="0"/></linearGradient><linearGradient id="paint31_linear" x1="43.084" y1="9.098" x2="43.084" y2="24.725" gradientUnits="userSpaceOnUse"><stop stop-color="#6F72D9"/><stop offset=".974" stop-color="#2AD1AB"/><stop offset="1" stop-opacity="0"/></linearGradient><linearGradient id="paint32_linear" x1="13.326" y1="38.786" x2="13.326" y2="40.543" gradientUnits="userSpaceOnUse"><stop stop-color="#6F72D9"/><stop offset=".974" stop-color="#2AD1AB"/><stop offset="1" stop-opacity="0"/></linearGradient><clipPath id="clip0"><path fill="#fff" d="M0 0h60v60H0z"/></clipPath></defs></svg>