<svg width="60" height="57" fill="none" xmlns="http://www.w3.org/2000/svg"><path d="M15.52 27.995l7.336 3.656a.94.94 0 00.89-.028l6.53-3.797-3.953 3.503a.939.939 0 00-.316.702v8.532c0 .9 1.149 1.278 1.688.563l3.17-4.216 7.843 4.466a.937.937 0 001.383-.63l4.891-24.375c.146-.732-.582-1.33-1.26-1.057L15.597 26.283c-.755.295-.804 1.35-.077 1.712zm27.287-10.311l-4.299 21.421-7.43-4.232a.94.94 0 00-1.215.25l-1.98 2.635v-5.305l10.688-9.47c.846-.75-.126-2.08-1.093-1.513l-14.237 8.278-4.99-2.487 24.556-9.577z" fill="#2AD1AB"/><defs><clipPath id="clip0"><path fill="#fff" transform="translate(15 14)" d="M0 0h30v30H0z"/></clipPath><filter id="filter0_d" x="0" y="-1" width="60" height="60" filterUnits="userSpaceOnUse" color-interpolation-filters="sRGB"><feFlood flood-opacity="0" result="BackgroundImageFix"/><feColorMatrix in="SourceAlpha" values="0 0 0 0 0 0 0 0 0 0 0 0 0 0 0 0 0 0 127 0"/><feOffset/><feGaussianBlur stdDeviation="7.5"/><feColorMatrix values="0 0 0 0 0.215686 0 0 0 0 0.388235 0 0 0 0 1 0 0 0 0.3 0"/><feBlend in2="BackgroundImageFix" result="effect1_dropShadow"/><feBlend in="SourceGraphic" in2="effect1_dropShadow" result="shape"/></filter></defs></svg>