<svg width="31" height="35" fill="none" xmlns="http://www.w3.org/2000/svg"><path d="M29.769 7.688a6.67 6.67 0 01-6.663-6.663C23.106.46 22.647 0 22.081 0h-5.492c-.566 0-1.025.459-1.025 1.025v22.516a3.921 3.921 0 01-3.917 3.916 3.921 3.921 0 01-3.917-3.916 3.921 3.921 0 013.917-3.917c.566 0 1.025-.46 1.025-1.026v-5.491c0-.566-.459-1.026-1.025-1.026-6.319 0-11.46 5.141-11.46 11.46C.188 29.859 5.329 35 11.648 35c6.318 0 11.46-5.14 11.46-11.46v-9.966a14.105 14.105 0 006.662 1.656c.566 0 1.025-.459 1.025-1.025V8.713c0-.566-.459-1.025-1.025-1.025zm-1.025 5.45a12.052 12.052 0 01-6.064-2.24 1.025 1.025 0 00-1.625.833v11.81c0 5.188-4.22 9.408-9.408 9.408s-9.409-4.22-9.409-9.408c0-4.842 3.676-8.841 8.383-9.354v3.474a5.977 5.977 0 00-4.942 5.88 5.975 5.975 0 005.968 5.968 5.975 5.975 0 005.968-5.968V2.05h3.5a8.732 8.732 0 007.629 7.628v3.458z" fill="url(#paint0_linear)"/><defs><linearGradient id="paint0_linear" x1="15.491" y1="0" x2="15.491" y2="35" gradientUnits="userSpaceOnUse"><stop stop-color="#6F72D9"/><stop offset="1" stop-color="#2AD1AB"/></linearGradient></defs></svg>