<svg width="60" height="60" fill="none" xmlns="http://www.w3.org/2000/svg"><path d="M53.598 11.477h1.854a1.171 1.171 0 000-2.342h-4.45a1.17 1.17 0 00-1.171 1.17v4.451a1.171 1.171 0 002.342 0v-1.289A27.568 27.568 0 0157.658 30c0 15.25-12.407 27.658-27.658 27.658C14.75 57.658 2.342 45.25 2.342 30 2.342 14.75 14.75 2.342 30 2.342c1.128 0 2.263.069 3.374.204A1.172 1.172 0 0033.657.22 30.427 30.427 0 0030 0C21.987 0 14.453 3.12 8.787 8.787 3.12 14.453 0 21.987 0 30c0 8.013 3.12 15.547 8.787 21.213C14.453 56.88 21.987 60 30 60c8.013 0 15.547-3.12 21.213-8.787C56.88 45.547 60 38.013 60 30c0-6.762-2.26-13.254-6.402-18.523z" fill="url(#paint0_linear)"/><path d="M12.703 17.685a1.172 1.172 0 00-1.616.363 22.454 22.454 0 00-3.333 14.3 22.42 22.42 0 006.43 13.469c4.36 4.36 10.088 6.54 15.816 6.54 5.728 0 11.456-2.18 15.817-6.54 8.72-8.721 8.72-22.912 0-31.633a22.421 22.421 0 00-13.448-6.427 22.455 22.455 0 00-14.283 3.306 1.171 1.171 0 101.25 1.982C27.291 8.03 37.5 9.179 44.16 15.84c7.808 7.808 7.808 20.512 0 28.32-7.808 7.809-20.513 7.809-28.32 0-6.57-6.568-7.736-17.023-2.774-24.859a1.171 1.171 0 00-.363-1.616z" fill="url(#paint1_linear)"/><path d="M45.225 31.19h1.444a1.171 1.171 0 000-2.342h-1.444a1.171 1.171 0 000 2.342z" fill="url(#paint2_linear)"/><path d="M12.16 29.98c0 .648.525 1.172 1.171 1.172h1.444a1.171 1.171 0 000-2.342h-1.444a1.17 1.17 0 00-1.17 1.17z" fill="url(#paint3_linear)"/><path d="M31.19 14.775v-1.444a1.171 1.171 0 00-2.342 0v1.444a1.171 1.171 0 002.342 0z" fill="url(#paint4_linear)"/><path d="M28.81 45.224v1.445a1.171 1.171 0 002.342 0v-1.445a1.171 1.171 0 00-2.342 0z" fill="url(#paint5_linear)"/><path d="M24.13 22.474a1.171 1.171 0 00-1.656 1.656l3.969 3.969a4.01 4.01 0 00-.477 1.9A4.039 4.039 0 0030 34.035 4.039 4.039 0 0034.035 30a4.01 4.01 0 00-.477-1.901l8.008-8.009a1.171 1.171 0 00-1.656-1.656l-8.01 8.009a4.01 4.01 0 00-1.9-.478c-.688 0-1.335.174-1.902.478l-3.969-3.97zM31.692 30c0 .933-.759 1.692-1.692 1.692A1.694 1.694 0 0128.308 30c0-.933.76-1.692 1.692-1.692.933 0 1.692.759 1.692 1.692z" fill="url(#paint6_linear)"/><path d="M15.839 15.839c.219-.218.344-.52.344-.828 0-.308-.125-.609-.344-.828a1.179 1.179 0 00-.828-.343c-.308 0-.61.125-.828.343a1.18 1.18 0 00-.343.828c0 .31.125.61.343.828.218.218.52.343.828.343.309 0 .61-.125.828-.343z" fill="url(#paint7_linear)"/><path d="M38.112 3.499c.31 0 .612-.124.83-.343a1.18 1.18 0 00.343-.828c0-.308-.125-.61-.343-.828a1.181 1.181 0 00-.83-.343c-.308 0-.61.125-.827.343a1.18 1.18 0 00-.344.828 1.175 1.175 0 001.171 1.171z" fill="url(#paint8_linear)"/><defs><linearGradient id="paint0_linear" x1="30" y1="0" x2="30" y2="60" gradientUnits="userSpaceOnUse"><stop stop-color="#6F72D9"/><stop offset="1" stop-color="#2AD1AB"/></linearGradient><linearGradient id="paint1_linear" x1="29.995" y1="7.633" x2="29.995" y2="52.358" gradientUnits="userSpaceOnUse"><stop stop-color="#6F72D9"/><stop offset="1" stop-color="#2AD1AB"/></linearGradient><linearGradient id="paint2_linear" x1="45.947" y1="28.848" x2="45.947" y2="31.19" gradientUnits="userSpaceOnUse"><stop stop-color="#6F72D9"/><stop offset="1" stop-color="#2AD1AB"/></linearGradient><linearGradient id="paint3_linear" x1="14.053" y1="28.81" x2="14.053" y2="31.152" gradientUnits="userSpaceOnUse"><stop stop-color="#6F72D9"/><stop offset="1" stop-color="#2AD1AB"/></linearGradient><linearGradient id="paint4_linear" x1="30.019" y1="12.16" x2="30.019" y2="15.947" gradientUnits="userSpaceOnUse"><stop stop-color="#6F72D9"/><stop offset="1" stop-color="#2AD1AB"/></linearGradient><linearGradient id="paint5_linear" x1="29.981" y1="44.053" x2="29.981" y2="47.84" gradientUnits="userSpaceOnUse"><stop stop-color="#6F72D9"/><stop offset="1" stop-color="#2AD1AB"/></linearGradient><linearGradient id="paint6_linear" x1="32.02" y1="18.091" x2="32.02" y2="34.034" gradientUnits="userSpaceOnUse"><stop stop-color="#6F72D9"/><stop offset="1" stop-color="#2AD1AB"/></linearGradient><linearGradient id="paint7_linear" x1="15.011" y1="13.84" x2="15.011" y2="16.182" gradientUnits="userSpaceOnUse"><stop stop-color="#6F72D9"/><stop offset="1" stop-color="#2AD1AB"/></linearGradient><linearGradient id="paint8_linear" x1="38.113" y1="1.157" x2="38.113" y2="3.499" gradientUnits="userSpaceOnUse"><stop stop-color="#6F72D9"/><stop offset="1" stop-color="#2AD1AB"/></linearGradient></defs></svg>